<svg width="128" height="128" version="1.1" viewBox="0 0 128 128" xmlns="http://www.w3.org/2000/svg">
    <g>
        <path d="m103 14.3-16.9 16.9c2.15 1.43 4.19 3.09 6.08 4.98 15.4 15.4 15.4 40.3 0 55.7-1.89 1.89-3.93 3.55-6.08 4.98l16.9 16.9c2.05-1.59 4.03-3.32 5.91-5.2 24.6-24.6 24.6-64.5 0-89.1-1.88-1.88-3.86-3.6-5.91-5.2z" fill="#ccc"/>
        <path d="m64 1c-16.1 0-32.2 6.15-44.5 18.5-24.6 24.6-24.6 64.5 0 89.1 22.7 22.7 58.5 24.5 83.2 5.21 3.43-2.67 3.4-7.7 0.329-10.8l-5.57-5.57c-3.08-3.08-8.03-2.99-11.7-0.586-15.3 10.2-36.1 8.5-49.6-4.98-15.4-15.4-15.4-40.3 0-55.7 13.5-13.5 34.3-15.1 49.6-4.98 3.62 2.4 8.57 2.49 11.7-0.586l5.57-5.57c3.08-3.08 3.1-8.11-0.329-10.8-11.3-8.83-25-13.2-38.7-13.2z" fill="#800000"/>
        <path d="m56.1 40.4v23.6c0 4.35 3.53 7.87 7.88 7.87h39.4c4.35 0 7.87-3.53 7.87-7.87a7.87 7.87 0 0 0-7.87-7.87l-31.5-2e-6v-15.7a7.87 7.87 0 0 0-7.87-7.87c-4.35 0-7.87 3.53-7.87 7.87z"/>
    </g>
</svg>
