<svg version="1.1" viewBox="0 0 180 135" xmlns="http://www.w3.org/2000/svg" xmlns:xlink="http://www.w3.org/1999/xlink">
	<defs>
		<g id="heures">
			<path d="m0 -32.875c-0.14627 0 -0.2648 0.119-0.2648 0.26527v0.88518c0 0.97489 0.012911 1.9507-0.045179 2.9239-0.058095 0.97315-0.19742 1.9552-0.58073 2.8516-0.25511 0.5966-0.61449 1.1428-0.8928 1.729-0.22613 0.4762-0.39958 0.996-0.40355 1.5182-0 0.1205 0.00716 0.2412 0.025726 0.3614 0.06655 0.4309 0.2694 0.8397 0.57221 1.1534 0.30281 0.3138 0.70424 0.5309 1.1325 0.6126l-0.37236 20.27 0.82897 0.3049 0.82897-0.3049-0.37236-20.27c0.42829-0.082 0.82971-0.2988 1.1325-0.6126 0.30281-0.3137 0.50566-0.7225 0.57221-1.1534 0.099033-0.6412-0.099515-1.2935-0.37783-1.8796-0.27831-0.5862-0.63769-1.1324-0.8928-1.729-0.38331-0.89635-0.52256-1.8784-0.58065-2.8516-0.058099-0.97316-0.045303-1.949-0.045259-2.9239l0 -0.88518c0 -0.14707-0.11854-0.26527-0.26484-0.26527z"/>
			<circle r="2.5"/>
		</g>
		<g id="minutes">
			<path d="m-1.5111-28.973c0 0.06422 0.00314 0.12852 0.00828 0.19277 0.058309 0.72847 0.45166 1.4233 1.0462 1.8483l-0.61932 26.602 1.0759 0.32927 1.0759-0.32927-0.61932-26.602c0.59452-0.42498 0.98787-1.1198 1.0462-1.8483 0.041148-0.51406-0.075449-1.0286-0.23691-1.5184-0.16146-0.48978-0.36635-0.9641-0.5378-1.4505-0.3429-0.97273-0.46329-2.0088-0.46328-3.0402v-9.6109c0-0.14706-0.1185-0.2653-0.2648-0.26528-0.1463-0 -0.2648 0.11822-0.2648 0.26528v9.6109c0 1.0314-0.12038 2.0674-0.46328 3.0402-0.17145 0.48636-0.37635 0.96069-0.5378 1.4505-0.14128 0.42855-0.24823 0.87605-0.24519 1.3256z"/>
			<circle cx="0" cy="0" r="2"/>
		</g>
		<g id="secondes">
			<path d="m-0.2648 14.765c0 0.14627 0.11854 0.26526 0.2648 0.26528 0.1463 0 0.26488-0.11822 0.26488-0.26528l-0 -14.38-0.2648-0.3849-0.2648 0.3849zm0.2648-14.765 0.2648-0.3849 0 -44.015c0-0.14706-0.11858-0.2653-0.26488-0.26528-0.14627 0 -0.2648 0.11902-0.2648 0.26528v44.015z"/>
			<circle r="1.3"/>
		</g>
	</defs>
	<g transform="scale(3) translate(20 40)">
		<use xlink:href="#heures" transform="rotate(-30)" fill="#048"/>
		<use xlink:href="#minutes" transform="rotate(60)" fill="#005"/>
		<use xlink:href="#secondes" transform="rotate(30)" fill="#c00"/>
	</g>
</svg>
