<svg version="1.1" viewBox="0 0 180 150" xmlns="http://www.w3.org/2000/svg" xmlns:xlink="http://www.w3.org/1999/xlink">
	<defs>
		<g id="heures">
			<path d="m0.01443-34.676c-0.0371 0-0.0739 0.0115-0.10506 0.0317-0.0312 0.0201-0.0565 0.0484-0.0743 0.081-0.0177 0.0326-0.028 0.0688-0.0333 0.10548-5e-3 0.0367-6e-3 0.0739-6e-3 0.11097l-0.12953 11.515c-0.14136-0.12528-0.31834-0.2117-0.50632-0.22446-0.22741-0.0154-0.45879 0.0758-0.61855 0.23839-0.15975 0.16259-0.24663 0.3928-0.2405 0.62065 6e-3 0.22321 0.10034 0.44294 0.25822 0.60083 0.15789 0.15789 0.37762 0.25222 0.60083 0.25822 5e-3 0.12807-0.0117 0.25699-0.0485 0.37974-0.0576 0.19204-0.16569 0.36852-0.31012 0.50758 0.23713-0.035 0.46379-0.13189 0.65652-0.27425l-0.79786 3.4484c-0.2692-0.14436-0.56048-0.246-0.86285-0.28818-0.24079-0.0399-0.48485-0.0845-0.70209-0.19577-0.21723-0.11127-0.40406-0.29254-0.49197-0.52024-0.0879-0.2277-0.0696-0.4963 0.0582-0.7042 0.12786-0.2079 0.36207-0.34696 0.60589-0.35822-0.34-0.13028-0.73655-0.10365-1.0561 0.0709-0.31954 0.17454-0.55625 0.49413-0.63036 0.85061-0.0429 0.2064-0.033 0.42394 0.0308 0.62487 0.0638 0.20094 0.1814 0.38384 0.33459 0.52868 0.0505 0.0477 0.10534 0.0897 0.16244 0.12911-0.31454 0.24124-0.56296 0.56906-0.68901 0.94428-0.10342 0.30786-0.12516 0.64138-0.0734 0.962 0.0375 0.23234 0.11431 0.46089 0.2464 0.65567 0.10195 0.15034 0.2365 0.27896 0.39366 0.37004 0.15716 0.0911 0.33694 0.1441 0.51855 0.14767 0.279 5e-3 0.55777-0.10917 0.75441-0.30716 0.19665-0.19799 0.30913-0.47621 0.30801-0.75526-1e-3 -0.27819-0.11508-0.55474-0.31138-0.75187-0.19631-0.19713-0.47284-0.3121-0.75104-0.31054-0.0434 2.1e-4 -0.0869 3e-3 -0.12995 9e-3 0.1069-0.15772 0.25102-0.29004 0.41728-0.38311 0.26577-0.14875 0.58333-0.19398 0.88479-0.15063 0.28014 0.0403 0.54578 0.15529 0.77804 0.31814l-0.65779 2.8438c-0.0809 0.34976-0.1649 0.74606-0.11856 1.1793 0.0462 0.43201 0.21001 0.85704 0.50969 1.1848 0.18436 0.20163 0.45919 0.31391 0.75399 0.31391 0.17704 0 0.34215-0.0455 0.48817-0.12278l-0.0401 1.6303c-0.13776-0.15722-0.33739-0.25865-0.56285-0.25865-0.4151 0-0.75188 0.33636-0.75188 0.75146 0 0.30953 0.18714 0.57551 0.45442 0.6907 0.0895-0.0743 0.20801-0.11243 0.32404-0.10464 0.11603 8e-3 0.22786 0.0613 0.31012 0.14346 0.0823 0.0822 0.13448 0.19106 0.15949 0.30463 0.025 0.11357 0.0235 0.23099 0.0207 0.34725l-0.11012 4.4809c-1.3754 0.34999-2.3387 1.5878-2.34 3.0071-1.6e-4 1.7154 1.3904 3.1062 3.1058 3.1062 1.7154-6e-5 3.106-1.3908 3.1058-3.1062-2e-3 -1.4074-0.94969-2.6376-2.3101-2.9982l-0.11012-4.48c-3e-3 -0.11625-4e-3 -0.23368 0.0207-0.34725 0.025-0.11356 0.0772-0.22243 0.15949-0.30463 0.0823-0.0822 0.19409-0.13567 0.31012-0.14346 0.11602-8e-3 0.23455 0.0304 0.32404 0.10464 0.26728-0.11519 0.45442-0.38116 0.45442-0.6907 0-0.41509-0.33678-0.75145-0.75188-0.75145-0.22546 0-0.4251 0.10142-0.56286 0.25864l-0.0405-1.6493c0.1461 0.0773 0.31142 0.12236 0.48859 0.12236 0.2948 0 0.56962-0.11228 0.75399-0.31391 0.29968-0.32775 0.46348-0.75277 0.50969-1.1848 0.0463-0.43323-0.0376-0.82953-0.11856-1.1793l-0.65779-2.8438c0.23226-0.16285 0.4979-0.27784 0.77804-0.31813 0.30146-0.0434 0.61903 2e-3 0.88478 0.15063 0.16627 0.0931 0.31039 0.22538 0.41729 0.38311-0.0431-6e-3 -0.0865-9e-3 -0.12995-9e-3 -0.2782-2e-3 -0.55473 0.11342-0.75104 0.31054-0.1963 0.19713-0.3103 0.47368-0.31138 0.75188-1e-3 0.27905 0.11136 0.55727 0.30801 0.75526 0.19664 0.19798 0.47541 0.31265 0.75441 0.30716 0.18161-4e-3 0.36139-0.0566 0.51855-0.14768 0.15716-0.0911 0.29171-0.21969 0.39366-0.37003 0.13209-0.19479 0.20891-0.42333 0.24641-0.65568 0.0517-0.32061 0.03-0.65414-0.0734-0.96199-0.12606-0.37522-0.37447-0.70305-0.68901-0.94428 0.0571-0.0394 0.11197-0.0814 0.16244-0.12911 0.15319-0.14484 0.27079-0.32774 0.33459-0.52868s0.0737-0.41847 0.0308-0.62488c-0.0741-0.35648-0.31082-0.67607-0.63036-0.85061s-0.71609-0.20116-1.0561-0.0709c0.24382 0.0113 0.47803 0.15032 0.60589 0.35822 0.12787 0.2079 0.14613 0.4765 0.0582 0.7042-0.0879 0.22769-0.27474 0.40897-0.49197 0.52024-0.21724 0.11127-0.4613 0.15587-0.70209 0.19577-0.30237 0.0422-0.59365 0.14382-0.86285 0.28818l-0.79786-3.4484c0.19273 0.14236 0.41939 0.23923 0.65652 0.27426-0.14443-0.13907-0.2525-0.31554-0.31012-0.50758-0.0368-0.12275-0.0532-0.25167-0.0485-0.37974 0.2232-6e-3 0.44294-0.10033 0.60083-0.25822 0.15788-0.15789 0.25221-0.37762 0.25822-0.60083 6e-3 -0.22785-0.0807-0.45807-0.2405-0.62066-0.15976-0.16258-0.39114-0.25383-0.61855-0.23838-0.18798 0.0128-0.36496 0.0992-0.50632 0.22446l-0.12953-11.505c-4.3e-4 -0.0371-8.6e-4 -0.0743-6e-3 -0.11097-5e-3 -0.0367-0.0156-0.0729-0.0333-0.10548-0.0177-0.0326-0.0431-0.0609-0.0743-0.081s-0.0684-0.0317-0.10548-0.0317zm1e-3 15.37 0.60125 2.5987c-0.24674 0.26234-0.44677 0.56685-0.60463 0.89153-0.15717-0.32103-0.35571-0.6221-0.59998-0.88183zm0.85735 3.7075 0.51729 2.2354c0.035 0.15127 0.0639 0.29569 0.0835 0.43374-0.12008-0.0471-0.24971-0.0751-0.38648-0.0751-0.19639 0-0.37798 0.057-0.53585 0.14978-0.0131-0.48628-0.0349-0.97622-0.10295-1.4565 0.053-0.32596 0.13317-0.64562 0.25948-0.95187 0.0475-0.11522 0.10401-0.22649 0.16497-0.33543zm-1.7168 0.01c0.061 0.10894 0.11745 0.22021 0.16497 0.33543 0.12507 0.30322 0.20523 0.61914 0.25822 0.94175-0.0679 0.48354-0.0896 0.97687-0.10253 1.4662-0.1577-0.0925-0.33893-0.14936-0.535-0.14936-0.13678 0-0.2664 0.028-0.38649 0.0751 0.0196-0.13805 0.0485-0.28247 0.0835-0.43374z" style="paint-order:normal"/>
		</g>
		<g id="minutes">
			<path d="m-0.00229-45.102c-0.0338 0-0.0677 0.0101-0.0962 0.0283s-0.0514 0.0443-0.0679 0.0738-0.0266 0.0624-0.0321 0.0958c-6e-3 0.0334-7e-3 0.067-8e-3 0.10084l-0.50252 17.596c-2e-3 -9.99e-4 -4e-3 -3e-3 -7e-3 -4e-3 -0.16302-0.0843-0.34588-0.13178-0.52909-0.13418-0.0611-8.59e-4 -0.12226 4e-3 -0.1827 0.0131-0.13599 0.0213-0.26824 0.0689-0.38396 0.14346-0.11571 0.0745-0.21424 0.17606-0.28142 0.29619-0.0672 0.12014-0.10229 0.25873-0.0954 0.3962 7e-3 0.13746 0.0562 0.27334 0.14304 0.38015 0.0758 0.0932 0.17953 0.16345 0.29408 0.19958 0.11455 0.0361 0.23974 0.038 0.35526 5e-3 0.11553-0.0329 0.2208-0.10009 0.29915-0.19113 0.0784-0.091 0.12941-0.20533 0.14472-0.32447 0.15611 0.34593 0.21042 0.73678 0.15485 1.1122-0.0635 0.42907-0.26387 0.82381-0.45442 1.2135-0.19054 0.38965-0.37692 0.79397-0.40885 1.2266-0.0341 0.46241 0.12109 0.93781 0.42869 1.2848 0.18311 0.20655 0.41987 0.36367 0.67888 0.45821-0.42979 0.12722-0.82119 0.38501-1.0966 0.7388-0.35708 0.45873-0.51261 1.071-0.40884 1.643 0.0489 0.26973 0.15474 0.53179 0.32741 0.74471 0.17267 0.21291 0.41488 0.37375 0.68395 0.42615 0.16387 0.0319 0.33634 0.0235 0.4945-0.03 0.15816-0.0534 0.30121-0.15234 0.40337-0.28438 0.10215-0.13204 0.16225-0.29718 0.16286-0.46412 6.5e-4 -0.16694-0.0592-0.33436-0.16919-0.4599-0.0818-0.0934-0.19064-0.16307-0.3097-0.19831-0.11906-0.0352-0.24802-0.0359-0.3675-2e-3 -0.0395-0.30217 0.0708-0.62017 0.2886-0.83331 0.21779-0.21314 0.53797-0.31642 0.83922-0.27046 0.17022 0.026 0.3324 0.097 0.47129 0.19873 0.1389 0.10178 0.25462 0.23391 0.34345 0.38142 0.17766 0.29503 0.24583 0.64589 0.24683 0.99027 2e-3 0.52345-0.14396 1.0367-0.32742 1.527-0.18434 0.49261-0.40978 0.96593-0.65694 1.4287-0.0412-0.26765-0.11309-0.5304-0.23375-0.77214-0.16981-0.3402-0.43914-0.63801-0.78394-0.79828-0.18796-0.0874-0.39638-0.13286-0.60336-0.12194-0.20698 0.0109-0.41215 0.0791-0.57931 0.20168-0.16716 0.12254-0.29484 0.30001-0.34936 0.49999-0.0545 0.19997-0.0336 0.42128 0.0654 0.60335 0.12158 0.22354 0.36106 0.37854 0.61475 0.39831 0.25369 0.0198 0.51402-0.0963 0.66876-0.29831 0.0791 0.15752 0.13545 0.3265 0.16666 0.49999 0.0684 0.3803 0.015 0.77453-0.1 1.1434-0.11503 0.3689-0.28972 0.71638-0.47846 1.0536-0.37748 0.67437-0.78402 1.3324-1.1409 2.0063-0.0979 0.19705-0.19893 0.40383-0.28986 0.61559-0.33131 0.77152-0.52641 1.6193-0.42742 2.4531 0.10556 0.88915 0.55472 1.7331 1.2333 2.3172 0.39837 0.31554 0.8913 0.50819 1.3974 0.55146v0.81348c-2.2674 0.23912-3.9892 2.1499-3.9919 4.4298 4.3e-4 2.2815 1.7229 4.1948 3.9919 4.4341v1.662c0 0.1829-3e-3 0.36962-0.0624 0.5426-0.0594 0.17297-0.17865 0.32945-0.3426 0.41053-0.082 0.0405-0.17353 0.0621-0.26498 0.0603-0.0914-2e-3 -0.18248-0.0267-0.26159-0.0726-0.0791-0.045899-0.14606-0.11289-0.19198-0.19198-0.0459-0.0791-0.0706-0.17014-0.0709-0.2616-0.27243 0.23443-0.42392 0.60246-0.39535 0.96074 0.029 0.36365 0.24312 0.70778 0.55652 0.89448 0.31341 0.18672 0.71785 0.21092 1.0514 0.0633-0.12068 0.47566-0.14766 0.97526-0.0789 1.4612 0.0731 0.51641 0.25426 1.0172 0.52868 1.4607 0.27442-0.44353 0.4556-0.9443 0.52868-1.4607 0.0688-0.48589 0.0418-0.98549-0.0789-1.4612 0.33459 0.14641 0.73947 0.12069 1.0527-0.0671 0.31325-0.18777 0.52668-0.53251 0.55526-0.8966 0.0281-0.35826-0.12327-0.72597-0.39535-0.96073 8.6e-4 0.0918-0.0228 0.18339-0.0679 0.26328-0.0452 0.0799-0.11133 0.14774-0.19029 0.19451-0.079 0.0468-0.17028 0.0723-0.26202 0.0747-0.0917 2e-3 -0.18378-0.0184-0.26624-0.0586-0.16491-0.0806-0.28481-0.23746-0.34471-0.41096-0.0599-0.17349-0.0633-0.36074-0.0633-0.54428v-1.6662c2.2674-0.23912 3.9892-2.1499 3.9919-4.4298-4.3e-4 -2.2815-1.7229-4.1948-3.9919-4.434v-0.90377c0.30295-0.0874 0.59089-0.22669 0.84301-0.41602 0.4492-0.33733 0.78895-0.83763 0.86918-1.3936 0.0401-0.278 0.0153-0.56608-0.081-0.82994s-0.2646-0.50245-0.48649-0.67466c-0.14869-0.11542-0.32113-0.20098-0.5042-0.24472-0.18308-0.0438-0.37687-0.0453-0.55948 4.3e-4 -0.18261 0.0456-0.3537 0.13874-0.48775 0.27088s-0.22998 0.30347-0.26835 0.48775c-0.032 0.15381-0.0239 0.31564 0.0236 0.46539 0.0475 0.14974 0.13448 0.2869 0.24936 0.39408 0.11488 0.10717 0.25743 0.18405 0.41011 0.22109 0.15269 0.037 0.31501 0.0342 0.46624-8e-3 -0.15057 0.37437-0.49403 0.66497-0.88817 0.75146-0.21871 0.048-0.44903 0.0359-0.66453-0.0249-0.21551-0.0608-0.41632-0.16955-0.59197-0.30843-0.18189-0.16516-0.35939-0.34183-0.47172-0.56033s-0.15833-0.46867-0.14345-0.7139c0.0201-0.33078 0.14603-0.65439 0.35526-0.91137 0.20924-0.25698 0.50081-0.44619 0.82065-0.53289-0.15692-0.19829-0.3747-0.34761-0.61601-0.4232-0.17724-0.0555-0.36659-0.0715-0.55062-0.0464 0.10843-0.30721 0.22285-0.6167 0.40674-0.88563 0.18388-0.26893 0.4385-0.49558 0.74302-0.61138 0.28704-0.10915 0.6118-0.11587 0.90292-0.0181 0.29113 0.0977 0.54625 0.29923 0.70927 0.55948-0.20792-0.0233-0.42418 0.0384-0.58817 0.16835-0.16399 0.12991-0.27379 0.32643-0.29873 0.53416-0.0161 0.13415 2e-3 0.27189 0.0511 0.39788 0.0488 0.12599 0.12787 0.23984 0.22742 0.33121 0.19909 0.18274 0.47874 0.27019 0.74808 0.2481 0.26934-0.0221 0.52616-0.14986 0.7177-0.3405 0.19153-0.19065 0.31883-0.44157 0.37509-0.70589 0.0905-0.4251-3e-3 -0.88042-0.22573-1.2536-0.22286-0.37313-0.56919-0.66533-0.96073-0.85398-0.39099-0.18839-0.82951-0.2744-1.2628-0.25316 0.87833-1.3169 1.7512-2.6473 2.3033-4.1273 0.22961-0.61545 0.4031-1.2621 0.3962-1.9189-8e-3 -0.72934-0.25614-1.4735-0.77213-1.989-0.29253-0.29226-0.66767-0.49836-1.0683-0.59872 0.23963-0.0961 0.45859-0.2451 0.62994-0.43838 0.3076-0.34696 0.46238-0.82236 0.42826-1.2848-0.0319-0.43258-0.21831-0.8369-0.40885-1.2266-0.19055-0.38966-0.39091-0.7844-0.45442-1.2135-0.0556-0.37542-8.6e-4 -0.76628 0.15527-1.1122 0.0153 0.11914 0.0659 0.23343 0.1443 0.32447 0.0784 0.091 0.18405 0.15825 0.29957 0.19113 0.11553 0.0329 0.24071 0.0311 0.35527-5e-3 0.11455-0.0361 0.2179-0.10636 0.29366-0.19958 0.0868-0.10681 0.13652-0.24269 0.14346-0.38015 7e-3 -0.13747-0.0282-0.27606-0.0954-0.3962-0.0672-0.12013-0.16613-0.22166-0.28185-0.29619-0.11572-0.0745-0.24797-0.12218-0.38395-0.14346-0.24177-0.0378-0.49443 9e-3 -0.7118 0.1211-2e-3 9.99e-4 -4e-3 2e-3 -6e-3 3e-3l-0.50251-17.595c-1e-3 -0.0338-2e-3 -0.0675-8e-3 -0.10084-5e-3 -0.0334-0.0155-0.0663-0.0321-0.0958-0.0165-0.0295-0.0394-0.0557-0.0679-0.0738s-0.0624-0.0283-0.0962-0.0283zm-4.3e-4 19.904c0.1043 0.4995 0.31713 0.96886 0.49745 1.4464 0.12018 0.31823 0.22774 0.65819 0.17131 0.99364-0.0282 0.16773-0.0994 0.33062-0.21645 0.454-0.11708 0.12338-0.28223 0.20421-0.45231 0.20421s-0.33523-0.0808-0.45231-0.20421c-0.11707-0.12338-0.18781-0.28627-0.21603-0.454-0.0564-0.33545 0.0507-0.67541 0.17088-0.99364 0.18033-0.47752 0.39316-0.94688 0.49746-1.4464z" style="paint-order:normal"/>
		</g>
		<g id="secondes">
			<path d="m0-44.789c-0.06059 0-0.15524 0.01867-0.20605 0.0517-0.05079 0.03305-0.09195 0.0799-0.12051 0.13334s-0.04471 0.11295-0.05287 0.173c-0.0082 0.06005-0.0082 0.12095-0.0082 0.18154v42.668c-0.73581 0.16942-1.2597 0.82388-1.2607 1.581-7e-5 0.89769 0.72767 1.6255 1.6254 1.6254 0.89769 7.1e-5 1.6255-0.72767 1.6254-1.6254-9.2e-4 -0.73991-0.50188-1.3827-1.2145-1.569v-42.68c0-0.06059 1.7e-5 -0.1215-0.0082-0.18155-0.0082-0.06005-0.02431-0.11955-0.05287-0.17299s-0.06972-0.1003-0.12051-0.13334-0.14583-0.05171-0.20642-0.05171z"/>
		</g>
	</defs>
	<g transform="scale(3) translate(20 40)">
		<use xlink:href="#minutes" transform="rotate(60)" fill="#550"/>
		<use xlink:href="#heures" transform="rotate(-30)" />
		<use xlink:href="#secondes" transform="rotate(30)" fill="#900"/>
	</g>
</svg>
