<svg version="1.1" viewBox="0 0 180 150" xmlns="http://www.w3.org/2000/svg" xmlns:xlink="http://www.w3.org/1999/xlink">
	<defs>
		<g id="heures">
			<path d="m0-31.324c-0.23536-4.9e-5 -0.42618 0.19076-0.42613 0.42613v6.0439c0 1.7184-0.51904 3.3154-1.4089 4.6431-0.60053 0.89606-0.95081 1.9741-0.95081 3.1338 0 1.3178 0.9161 2.4191 2.1455 2.7086-0.55087 1.8148-0.79955 3.7212-0.7317 5.6165 0.05306 1.4822 0.30281 2.9562 0.73294 4.3756-2.1406 0.30993-3.7859 2.1498-3.7859 4.3763-2e-6 2.4438 1.9811 4.4249 4.4249 4.4249 2.4438 0 4.4249-1.9811 4.4249-4.4249 0-2.2265-1.6453-4.0663-3.7859-4.3763 0.43013-1.4194 0.67988-2.8934 0.73294-4.3756 0.06785-1.8954-0.18083-3.8017-0.7317-5.6165 1.2294-0.28957 2.1455-1.3908 2.1455-2.7086 0-1.1597-0.35028-2.2378-0.95081-3.1338-0.88982-1.3277-1.4089-2.9248-1.4089-4.6431v-6.0439c4.7e-5 -0.23536-0.19077-0.42618-0.42613-0.42613z"/>
		</g>
		<g id="minutes">
			<path d="m0-44.695c-0.28824-4e-6 -0.5219 0.23366-0.52189 0.52189v13.031c0 0.75041-0.04361 1.509-0.25444 2.2292-0.21083 0.72018-0.59233 1.392-1.1179 1.9277 0.83195 1.5866 1.3045 3.3605 1.3723 5.1507 0.10133 2.6742-0.68346 5.2935-1.028 7.9474-0.45469 3.5026-0.12938 7.1029 0.93934 10.469-1.6264 0.28866-2.8617 1.7084-2.8617 3.4177-1e-6 1.6296 1.123 2.9956 2.637 3.3697v0.96506c-0.67562 0.31812-1.1246 1.0009-1.1256 1.7699 9.52e-4 0.77054 0.45176 1.4511 1.1256 1.7684v0.86558c-0.06494-0.0249-0.13165-0.0487-0.20268-0.0694-0.27639-0.0806-0.58352-0.12424-0.89658-0.12737-0.40914-7e-3 -0.78781 0.21546-0.97994 0.57675-0.28201 0.53026-0.08084 1.1887 0.44937 1.4708l1.0205 0.54328c-0.33085 0.36096-0.516 0.83227-0.51631 1.3227 1e-6 1.0829 0.87789 1.9608 1.9608 1.9608s1.9608-0.87789 1.9608-1.9608c-3.17e-4 -0.49043-0.18546-0.96174-0.51631-1.3227l1.0205-0.54328c0.53021-0.28211 0.73139-0.94058 0.44937-1.4708-0.19214-0.36129-0.57081-0.58416-0.97994-0.57675-0.31306 3e-3 -0.62019 0.0468-0.89658 0.12737-0.07103 0.0207-0.13775 0.0446-0.20268 0.0694v-0.86558c0.67384-0.31726 1.1246-0.99782 1.1256-1.7684-9.52e-4 -0.76898-0.44999-1.4518-1.1256-1.7699v-0.96506c1.514-0.37404 2.637-1.7401 2.637-3.3697 0-1.7093-1.2354-3.129-2.8617-3.4177 1.0687-3.3662 1.394-6.9666 0.93934-10.469-0.34452-2.6538-1.1293-5.2732-1.028-7.9474 0.06783-1.7902 0.54034-3.5641 1.3723-5.1507-0.52552-0.53567-0.90702-1.2075-1.1179-1.9277-0.21083-0.72018-0.25444-1.4788-0.25444-2.2292v-13.031c6e-6 -0.28824-0.23366-0.5219-0.52189-0.52189z" color="#000000" color-rendering="auto" dominant-baseline="auto" image-rendering="auto" shape-rendering="auto" solid-color="#000000" style="font-feature-settings:normal;font-variant-alternates:normal;font-variant-caps:normal;font-variant-ligatures:normal;font-variant-numeric:normal;font-variant-position:normal;isolation:auto;mix-blend-mode:normal;shape-padding:0;text-decoration-color:#000000;text-decoration-line:none;text-decoration-style:solid;text-indent:0;text-orientation:mixed;text-transform:none;white-space:normal"/>
		</g>
		<g id="secondes">
			<path d="m0-44.789c-0.06059 0-0.15524 0.01867-0.20605 0.0517-0.05079 0.03305-0.09195 0.0799-0.12051 0.13334s-0.04471 0.11295-0.05287 0.173c-0.0082 0.06005-0.0082 0.12095-0.0082 0.18154v42.668c-0.73581 0.16942-1.2597 0.82388-1.2607 1.581-7e-5 0.89769 0.72767 1.6255 1.6254 1.6254 0.89769 7.1e-5 1.6255-0.72767 1.6254-1.6254-9.2e-4 -0.73991-0.50188-1.3827-1.2145-1.569v-42.68c0-0.06059 1.7e-5 -0.1215-0.0082-0.18155-0.0082-0.06005-0.02431-0.11955-0.05287-0.17299s-0.06972-0.1003-0.12051-0.13334-0.14583-0.05171-0.20642-0.05171z"/>
		</g>
	</defs>
	<g transform="scale(3) translate(20 40)">
		<use xlink:href="#heures" transform="rotate(-30)" />
		<use xlink:href="#minutes" transform="rotate(60)" fill="#550"/>
		<use xlink:href="#secondes" transform="rotate(30)" fill="#900"/>
	</g>
</svg>
