<svg version="1.1" viewBox="0 0 180 135" xmlns="http://www.w3.org/2000/svg" xmlns:xlink="http://www.w3.org/1999/xlink">
	<defs>
		<g id="heures">
			<path d="m0 3.06c1.6915 0 3.0626-1.3714 3.0626-3.0629 0-1.5461-1.1467-2.821-2.6354-3.0294v-10.927c0.16194-0.16231 0.26351-0.38373 0.28116-0.61233 0.014761-0.19115-0.026657-0.38233-0.084502-0.56511-0.057847-0.18278-0.13148-0.36021-0.19293-0.54181-0.12289-0.36321-0.16559-0.74834-0.16559-1.1318v-0.0199c0.065997-5e-3 0.13175-0.01 0.19759-0.0168 0.057695 0.7623 0.26138 1.5058 0.59897 2.1539l0.26718 0.51322 0.30011-0.9115-0.063997-0.13639c-0.24405-0.52046-0.37607-1.1325-0.38337-1.755 0.070171-0.0193 0.14087-0.0373 0.21001-0.06 0.042324-0.0439 0.066484-0.10433 0.066484-0.16528 0-0.0609-0.02416-0.12142-0.066484-0.16528-0.063064-0.0207-0.12776-0.0368-0.19168-0.0547 0.00463-0.0543 0.0077-0.10867 0.014284-0.1628 0.035509-0.29162 0.10041-0.55501 0.20442-0.74747 0.051517-0.0953 0.11484-0.17679 0.17988-0.23331 0.049132-0.0427 0.10069-0.0611 0.14974-0.0774-3.182e-4 0.0108-0.00466 0.0202-0.00466 0.0311 0 0.39307 0.26533 0.71765 0.58624 0.71765 0.32091 0 0.58624-0.32481 0.58624-0.71765 0-0.03-0.00178-0.0619-0.00528-0.0944-0.051767-0.59534-0.5395-0.97892-1.074-0.97892-0.052473 0-0.10478 5e-3 -0.15627 0.0134-0.21236 0.0357-0.40495 0.1413-0.56542 0.28737-0.15951 0.1452-0.28428 0.32675-0.37871 0.52006-0.18764 0.38418-0.25195 0.80088-0.27805 1.175-0.002911 0.0417-0.002672 0.0837-0.004661 0.12551-0.062832-6e-3 -0.12561-0.0115-0.18858-0.0158v-0.11526c0-0.44477 0.007349-1.0007 0.084812-1.3297 0.06-0.25484 0.15846-0.50392 0.23362-0.75648 0.075161-0.25257 0.12721-0.51233 0.092891-0.76985-0.034276-0.25715-0.14826-0.50385-0.22275-0.75617-0.074489-0.25231-0.099484-0.51141-0.10376-0.76984l-0.17242-10.431c-4.7719e-4 -0.0225-0.001113-0.0454-0.005599-0.0677-0.00439-0.0223-0.012646-0.0442-0.027028-0.064-0.014379-0.0198-0.035027-0.0372-0.060269-0.0494-0.02524-0.0122-0.054791-0.0193-0.084814-0.0193-0.030025 0-0.059883 7e-3 -0.085123 0.0193-0.02524 0.0122-0.04558 0.0296-0.05996 0.0494-0.014379 0.0198-0.022956 0.0417-0.027338 0.064-0.004358 0.0223-0.004836 0.0452-0.005281 0.0677l-0.17273 10.431c-0.004279 0.25843-0.029276 0.51753-0.10376 0.76984-0.074491 0.25232-0.18848 0.49902-0.22275 0.75617-0.034321 0.25752 0.017729 0.51728 0.092891 0.76985 0.075159 0.25256 0.17362 0.50164 0.23362 0.75648 0.077469 0.329 0.085123 0.8849 0.085123 1.3297v0.11526c-0.062972 4e-3 -0.12606 9e-3 -0.18889 0.0158-0.002004-0.0418-0.001432-0.0838-0.004342-0.12551-0.026098-0.37408-0.090405-0.79078-0.27805-1.175-0.094422-0.19331-0.21951-0.37486-0.37902-0.52006-0.16047-0.14607-0.35307-0.25169-0.56542-0.28737-0.051494-9e-3 -0.10379-0.0134-0.15627-0.0134-0.53449 0-1.0219 0.38358-1.0737 0.97892-0.0035 0.0326-0.0056 0.0644-0.0056 0.0944 0 0.39284 0.26533 0.71765 0.58623 0.71765 0.32091 0 0.58655-0.32458 0.58655-0.71765 0-0.0109-0.00457-0.0203-0.00496-0.0311 0.04906 0.0163 0.10123 0.0346 0.15036 0.0774 0.065036 0.0565 0.12805 0.13798 0.17957 0.23331 0.10401 0.19246 0.16891 0.45585 0.20442 0.74747 0.00659 0.0541 0.00935 0.10848 0.013982 0.1628-0.063928 0.0179-0.12831 0.034-0.19137 0.0547-0.042325 0.0439-0.066794 0.10433-0.066794 0.16528 0 0.0609 0.024469 0.12142 0.066794 0.16528 0.069138 0.0227 0.13984 0.0407 0.21001 0.06-0.0073 0.62244-0.13962 1.2345-0.38368 1.755l-0.063999 0.13639 0.30011 0.9115 0.26718-0.51322c0.3376-0.6481 0.54159-1.3916 0.59928-2.1539 0.065787 7e-3 0.13164 0.0122 0.19759 0.0168v0.0199c0 0.38343-0.043008 0.76856-0.1659 1.1318-0.061448 0.1816-0.13477 0.35903-0.19262 0.54181-0.057845 0.18278-0.099569 0.37396-0.084814 0.56511 0.017646 0.2286 0.11922 0.45002 0.28116 0.61233v10.927c-1.4886 0.20845-2.6354 1.4833-2.6354 3.0294 0 1.6915 1.3714 3.0629 3.0629 3.0629z"/>
		</g>
		<g id="minutes">
			<path d="m0 2.43c1.3413 0 2.4288-1.0875 2.4288-2.4288 0-1.181-0.84329-2.1638-1.9603-2.3822v-16.973c0.17751-0.17792 0.28884-0.42047 0.30819-0.67105 0.016175-0.20953-0.029482-0.41912-0.09289-0.61948-0.063409-0.20036-0.1439-0.39493-0.21126-0.594-0.13471-0.39813-0.18174-0.8202-0.18174-1.2405v-0.0221c0.072344-5e-3 0.14468-0.0108 0.21685-0.0183 0.063242 0.83559 0.28639 1.6507 0.65645 2.3611l0.29296 0.56263 0.329-0.99912-0.070212-0.14974c-0.26752-0.57052-0.41234-1.2414-0.42034-1.9237 0.076918-0.0211 0.15442-0.0407 0.23021-0.0656 0.046394-0.0481 0.073007-0.11431 0.073007-0.18112 0-0.0668-0.026613-0.13336-0.073007-0.18143-0.069127-0.0227-0.13994-0.0401-0.21001-0.0597 0.00507-0.0595 0.0083-0.1193 0.01554-0.17863 0.038923-0.31967 0.10998-0.60828 0.22399-0.81924 0.056472-0.1045 0.12598-0.19372 0.19728-0.25568 0.053856-0.0468 0.11057-0.0669 0.16434-0.0848-3.181e-4 0.0118-0.00528 0.0219-0.00528 0.0339 0 0.43086 0.29102 0.78661 0.64278 0.78661 0.35176 0 0.64247-0.356 0.64247-0.78661 0-0.0329-0.00205-0.0678-0.0059-0.10346-0.056744-0.65258-0.59125-1.073-1.1771-1.073-0.057519 0-0.11474 5e-3 -0.17118 0.0146-0.23277 0.0391-0.44389 0.1549-0.61979 0.31502-0.17485 0.15916-0.31186 0.35818-0.41537 0.57008-0.20569 0.42111-0.27616 0.878-0.30477 1.288-0.003197 0.0457-0.002784 0.0915-0.004963 0.13732-0.068873-7e-3 -0.13788-0.0123-0.20691-0.0171v-0.12644c0-0.48754 0.008287-0.97759 0.093202-1.4577 0.065768-0.37187 0.1736-0.73496 0.25599-1.1035 0.082388-0.36854 0.13952-0.74762 0.1019-1.1234-0.037572-0.37524-0.16253-0.73532-0.24419-1.1035-0.081652-0.36817-0.10902-0.74629-0.1137-1.1234l-0.1892-15.221c-4.7719e-4 -0.0329-0.001113-0.0659-0.005901-0.0985-0.004804-0.0326-0.014061-0.0646-0.029824-0.0935s-0.038194-0.0543-0.065862-0.0721c-0.027668-0.0178-0.060291-0.028-0.093202-0.028-0.032912 0-0.065534 0.0101-0.0932 0.028-0.027668 0.0178-0.0501 0.0432-0.065863 0.0721-0.015763 0.0289-0.025021 0.0609-0.029824 0.0935-0.004772 0.0326-0.005424 0.0656-0.005901 0.0985l-0.1892 15.221c-0.004692 0.37709-0.032053 0.75521-0.1137 1.1234-0.081654 0.36818-0.20662 0.72826-0.24419 1.1035-0.037622 0.37577 0.019509 0.75485 0.1019 1.1234 0.082385 0.36854 0.19022 0.73163 0.25599 1.1035 0.084918 0.48008 0.093202 0.97013 0.093202 1.4577v0.12644c-0.069027 5e-3 -0.13804 0.01-0.20691 0.0171-0.002195-0.0458-0.001782-0.0916-0.004963-0.13732-0.028608-0.41004-0.09908-0.86693-0.30477-1.288-0.1035-0.2119-0.24052-0.41092-0.41537-0.57008-0.1759-0.16012-0.38701-0.27591-0.61979-0.31502-0.056444-9e-3 -0.11366-0.0146-0.17118-0.0146-0.58588 0-1.1204 0.42047-1.1771 1.073-0.00383 0.0357-0.0059 0.0706-0.0059 0.10346 0 0.43061 0.29071 0.78661 0.64247 0.78661 0.35176 0 0.64278-0.35575 0.64278-0.78661 0-0.0119-0.00484-0.022-0.00528-0.0339 0.053778 0.0179 0.1108 0.038 0.16466 0.0848 0.071291 0.062 0.14049 0.15118 0.19696 0.25568 0.11401 0.21096 0.18507 0.49957 0.22399 0.81924 0.00722 0.0593 0.010466 0.11909 0.01554 0.17863-0.070074 0.0196-0.14089 0.0369-0.21001 0.0597-0.046394 0.0481-0.073008 0.11462-0.073008 0.18143 0 0.0668 0.026614 0.13305 0.073008 0.18112 0.075787 0.0249 0.15329 0.0444 0.23021 0.0656-8e-3 0.68229-0.15282 1.3532-0.42034 1.9237l-0.07021 0.14974 0.329 0.99912 0.29296-0.56263c0.37006-0.71041 0.59352-1.5255 0.65676-2.3611 0.072113 8e-3 0.14425 0.0133 0.21654 0.0183v0.0221c0 0.42031-0.047035 0.84238-0.18174 1.2405-0.067354 0.19907-0.14785 0.39364-0.21126 0.594-0.063407 0.20036-0.10906 0.40995-0.09289 0.61948 0.019344 0.25058 0.13067 0.49313 0.30819 0.67105v16.973c-1.117 0.21839-1.9603 1.2012-1.9603 2.3822 0 1.3413 1.0875 2.4288 2.4288 2.4288z"/>
		</g>
		<g id="secondes">
			<path d="m-0.2648 14.765c0 0.14627 0.11854 0.26526 0.2648 0.26528 0.1463 0 0.26488-0.11822 0.26488-0.26528l-0 -14.38-0.2648-0.3849-0.2648 0.3849zm0.2648-14.765 0.2648-0.3849 0 -44.015c0-0.14706-0.11858-0.2653-0.26488-0.26528-0.14627 0 -0.2648 0.11902-0.2648 0.26528v44.015z"/>
			<circle r="1.3"/>
		</g>
	</defs>
	<g transform="scale(3) translate(20 40)">
		<use xlink:href="#heures" transform="rotate(-30)" />
		<use xlink:href="#minutes" transform="rotate(60)" fill="#550"/>
		<use xlink:href="#secondes" transform="rotate(30)" fill="red"/>
	</g>
</svg>
