<svg version="1.1" viewBox="0 0 180 160" xmlns="http://www.w3.org/2000/svg" xmlns:xlink="http://www.w3.org/1999/xlink">
	<defs>
		<g id="heures">
			<path d="m0-28.322c-0.28824-4e-6 -0.52149 0.23325-0.52148 0.52148v7.0664a3.4326 3.4326 0 0 0-2.9121 3.3887 3.4326 3.4326 0 0 0 2.9023 3.3887l-0.42969 10.104a3.9761 3.9761 0 0 0-3.0156 3.8535 3.9761 3.9761 0 0 0 3.9766 3.9766 3.9761 3.9761 0 0 0 3.9766-3.9766 3.9761 3.9761 0 0 0-3.0156-3.8555l-0.42969-10.104a3.4326 3.4326 0 0 0 2.9023-3.3867 3.4326 3.4326 0 0 0-2.9121-3.3906v-7.0645c6e-6 -0.28824-0.23325-0.52149-0.52148-0.52148zm0 8.3945a2.0151 2.0151 0 0 1 2.0156 2.0156 2.0151 2.0151 0 0 1-2.0156 2.0137 2.0151 2.0151 0 0 1-2.0156-2.0137 2.0151 2.0151 0 0 1 2.0156-2.0156z"/>
		</g>
		<g id="minutes">
			<path d="m0-44.695c-0.28824-4e-6 -0.52149 0.23325-0.52148 0.52148v7.125a2.9761 2.9761 0 0 0-2.4551 2.9277 2.9761 2.9761 0 0 0 2.4492 2.9277l-0.45703 28.389a2.9762 2.9762 0 0 0-1.9922 2.8047 2.9762 2.9762 0 0 0 2.9766 2.9766 2.9762 2.9762 0 0 0 2.9766-2.9766 2.9762 2.9762 0 0 0-1.9922-2.8047l-0.45703-28.389a2.9761 2.9761 0 0 0 2.4492-2.9277 2.9761 2.9761 0 0 0-2.4551-2.9297v-7.123c6e-6 -0.28824-0.23325-0.52149-0.52148-0.52148zm0 8.3359a1.7471 1.7471 0 0 1 1.748 1.748 1.7471 1.7471 0 0 1-1.748 1.7461 1.7471 1.7471 0 0 1-1.748-1.7461 1.7471 1.7471 0 0 1 1.748-1.748z"/>
		</g>
		<g id="secondes">
			<path d="m0-44.695c-0.20365-4e-6 -0.36914 0.16549-0.36914 0.36914v42.385a1.9761 1.9761 0 0 0-1.6074 1.9414 1.9761 1.9761 0 0 0 1.6074 1.9395v7.377a1.9761 1.9761 0 0 0-1.6074 1.9395 1.9761 1.9761 0 0 0 1.9766 1.9766 1.9761 1.9761 0 0 0 1.9766-1.9766 1.9761 1.9761 0 0 0-1.6074-1.9395v-7.375a1.9761 1.9761 0 0 0 1.6074-1.9414 1.9761 1.9761 0 0 0-1.6074-1.9395v-42.387c4.25e-6 -0.20365-0.16549-0.36915-0.36914-0.36914zm0 55.117a1.1601 1.1601 0 0 1 1.1602 1.1602 1.1601 1.1601 0 0 1-1.1602 1.1602 1.1601 1.1601 0 0 1-1.1602-1.1602 1.1601 1.1601 0 0 1 1.1602-1.1602z"/>
		</g>
	</defs>
	<g transform="scale(3) translate(20 40)">
		<use xlink:href="#heures" transform="rotate(-30)" />
		<use xlink:href="#minutes" transform="rotate(60)" fill="#550"/>
		<use xlink:href="#secondes" transform="rotate(30)" fill="#900"/>
	</g>
	<g>
	</g>
</svg>
