<svg version="1.1" viewBox="0 0 180 135" xmlns="http://www.w3.org/2000/svg" xmlns:xlink="http://www.w3.org/1999/xlink">
	<defs>
		<g id="heures">
			<path d="m0-36.801c-0.08455 0-0.16859 0.02542-0.23946 0.07153s-0.12808 0.11203-0.16794 0.1866-0.06248 0.15763-0.07386 0.24141-0.01166 0.16852-0.01166 0.25308v1.3077c0 1.3196-0.11212 2.6504-0.52986 3.9022s-1.0819 2.4179-1.4123 3.6954c-0.33158 1.2818-0.28355 2.6554 0.10963 3.9197 0.01431 0.04599 0.0292 0.0924 0.03382 0.14034 0.0046 0.04794-0.0018 0.09833-0.02721 0.13917-0.02377 0.03802-0.06299 0.06499-0.10574 0.07853-0.04275 0.01353-0.08917 0.01431-0.13334 0.0066-0.08835-0.01539-0.1673-0.06238-0.24802-0.10146-0.25776-0.12478-0.54801-0.17552-0.83425-0.16677-0.28624 0.0088-0.56885 0.07588-0.83698 0.17649-0.57367 0.21528-1.0887 0.58997-1.4566 1.0799-0.36792 0.48998-0.58537 1.0948-0.59712 1.7074-0.01175 0.61262 0.18501 1.2299 0.56213 1.7128 0.37712 0.48293 0.93421 0.82522 1.5383 0.92794 0.47146 0.08018 0.97358 0.01232 1.3878-0.22665 0.35532-0.20495 0.63884-0.54043 0.76389-0.92912 0.52122 0.37173 0.95334 0.86871 1.2444 1.4392 0.36862 0.72249 0.50972 1.5591 0.39808 2.3624h-1.0959c-0.05045 0-0.10266 0.0022-0.14772 0.02488-0.02253 0.01134-0.04266 0.02726-0.05831 0.04704-0.01564 0.01978-0.02661 0.04336-0.03188 0.06803-0.01053 0.04933 0.0024 0.10151 0.02799 0.145 0.02557 0.04349 0.06239 0.07892 0.09758 0.11507 0.20523 0.2109 0.36655 0.4608 0.50809 0.71879 0.31564 0.57534 0.54218 1.2098 0.57574 1.8652 0.05221 1.0196-0.36004 2.0007-0.79811 2.9231-0.43805 0.92217-0.91839 1.8552-1.0173 2.8713-0.08454 0.86795 0.1253 1.7618 0.58701 2.5015 0.19767 0.31673 0.44328 0.60205 0.72112 0.85135-1.0783 0.48822-1.7717 1.5617-1.7735 2.7453-1.05e-4 1.6672 1.3514 3.0188 3.0186 3.0186 1.6672 1.058e-4 3.0188-1.3514 3.0186-3.0186-0.0017-1.1715-0.68103-2.2362-1.7428-2.7314 0.28431-0.25254 0.53532-0.54272 0.73668-0.86534 0.46171-0.73981 0.67156-1.6337 0.58701-2.5015-0.09898-1.0161-0.5793-1.9491-1.0173-2.8713-0.43805-0.92217-0.85032-1.9034-0.79811-2.9231 0.03356-0.65538 0.2601-1.2899 0.57574-1.8652 0.14154-0.25799 0.30286-0.50791 0.50809-0.71879 0.03518-0.03616 0.07162-0.07158 0.09719-0.11507s0.03891-0.09567 0.02838-0.145c-0.0053-0.02467-0.01623-0.04825-0.03188-0.06803-0.01564-0.01978-0.03578-0.03571-0.05831-0.04704-0.04507-0.02267-0.09766-0.02488-0.14811-0.02488h-1.0955c-0.11164-0.80336 0.02945-1.6399 0.39808-2.3624 0.29104-0.57043 0.72317-1.0674 1.2444-1.4392 0.12507 0.38862 0.40861 0.72416 0.76389 0.92912 0.41426 0.23895 0.91638 0.30682 1.3878 0.22665 0.60406-0.10273 1.1612-0.44501 1.5383-0.92794 0.37712-0.48293 0.57387-1.1002 0.56213-1.7128-0.01175-0.61262-0.22919-1.2174-0.59712-1.7074-0.36792-0.48997-0.88296-0.86466-1.4566-1.0799-0.26813-0.10061-0.55074-0.16774-0.83698-0.17649-0.28624-0.0088-0.5765 0.04199-0.83425 0.16677-0.08072 0.03908-0.16006 0.08608-0.2484 0.10146-0.04418 0.0077-0.0902 0.0069-0.13295-0.0066-0.04275-0.01353-0.08197-0.04051-0.10574-0.07853-0.02553-0.04084-0.03184-0.09123-0.02721-0.13917 0.0046-0.04794 0.01953-0.09435 0.03382-0.14034 0.39318-1.2643 0.44119-2.6379 0.10963-3.9197-0.33046-1.2776-0.99458-2.4436-1.4123-3.6954-0.41774-1.2518-0.52986-2.5825-0.52986-3.9022v-1.3077c0-0.08455-1.98e-4 -0.16929-0.01166-0.25308-0.01138-0.08378-0.034-0.16684-0.07386-0.24141s-0.09706-0.14049-0.16794-0.1866c-0.07087-0.04611-0.1553-0.07153-0.23986-0.07153zm0 6.4704c0.73973 0.90431 1.2598 1.987 1.5029 3.1299 0.32483 1.5271 0.14723 3.157-0.49877 4.5783l-1.0041-0.82882-1.0038 0.82882c-0.44412-0.9772-0.66672-2.0529-0.65699-3.1259 0.0044-0.48776 0.05671-0.97513 0.15822-1.4524 0.24307-1.1428 0.76278-2.2255 1.5025-3.1299zm-3.4338 8.4813c0.05435 9.55e-4 0.10842 0.0038 0.1625 0.0089 0.43261 0.04091 0.84996 0.21062 1.1989 0.46961s0.63014 0.6054 0.82687 0.99287c0.21572 0.42483 0.33086 0.90015 0.3347 1.3766-0.21747 0.0029-0.43522-0.023-0.6457-0.07775-0.23745-0.06176-0.46504-0.16071-0.67331-0.2904-0.02867-0.16712-0.0862-0.32891-0.17222-0.47505-0.16995-0.28877-0.45017-0.51245-0.77167-0.60683-0.15289-0.04489-0.31486-0.06101-0.47272-0.03926-0.15785 0.02174-0.31148 0.08218-0.43695 0.18038-0.12548 0.09821-0.22189 0.23461-0.26512 0.38797-0.04324 0.15336-0.03174 0.32306 0.03926 0.46571 0.0801 0.16093 0.22617 0.2769 0.3526 0.40469 0.06322 0.06389 0.12287 0.13227 0.16677 0.2107s0.07133 0.16756 0.06725 0.25736c-0.0032 0.07-0.02571 0.13892-0.06298 0.19826s-0.08889 0.10934-0.1485 0.14617c-0.11923 0.07364-0.26769 0.09292-0.40546 0.06725s-0.26526-0.09381-0.3736-0.18271c-0.10833-0.0889-0.19864-0.1981-0.27951-0.31255-0.19489-0.27583-0.33958-0.58932-0.40546-0.92056-0.02471-0.12422-0.03794-0.25073-0.03926-0.37748-0.0022-0.21124 0.02932-0.42278 0.09796-0.6224 0.1413-0.41094 0.43988-0.76242 0.81443-0.98276 0.32772-0.1928 0.71079-0.28584 1.0912-0.27874zm6.868 0c0.38042-0.0071 0.76349 0.08593 1.0912 0.27873 0.37455 0.22034 0.67313 0.57182 0.81443 0.98276 0.10982 0.31938 0.1242 0.66861 0.05831 0.99985s-0.21056 0.64473-0.40546 0.92056c-0.08087 0.11445-0.17079 0.22366-0.27911 0.31255-0.10833 0.0889-0.23582 0.15704-0.3736 0.18271-0.13777 0.02567-0.28624 0.0064-0.40546-0.06725-0.05961-0.03683-0.11124-0.08683-0.1485-0.14617-0.03727-0.05934-0.06018-0.12826-0.06337-0.19826-0.0041-0.08979 0.02374-0.17892 0.06764-0.25736 0.0439-0.07843 0.10356-0.14681 0.16677-0.2107 0.12643-0.12779 0.27211-0.24376 0.3522-0.40469 0.071-0.14265 0.0829-0.31235 0.03965-0.46571-0.04324-0.15336-0.13964-0.28976-0.26512-0.38797s-0.27909-0.15864-0.43695-0.18038c-0.15785-0.02174-0.31984-0.0056-0.47272 0.03926-0.32149 0.09439-0.60172 0.31808-0.77167 0.60683-0.08601 0.14614-0.14354 0.30793-0.17221 0.47505-0.20827 0.12968-0.43586 0.22864-0.67331 0.2904-0.2105 0.05476-0.42823 0.08073-0.6457 0.07775 0.0038-0.4764 0.119-0.95173 0.3347-1.3766 0.19674-0.38747 0.47755-0.73388 0.82647-0.99287 0.34894-0.25899 0.76668-0.42869 1.1993-0.46961 0.05408-0.0051 0.10815-8e-3 0.1625-0.0089zm-3.4342 11.998c0.06384 0.13236 0.12899 0.26414 0.19515 0.39535 0.55785 1.1062 1.2104 2.2087 1.347 3.44 0.02235 0.20149 0.03029 0.40572 0.0047 0.60683-0.02563 0.20111-0.08574 0.39931-0.19282 0.57146-0.01668 0.02681-0.03493 0.05338-0.05792 0.07503s-0.05117 0.03838-0.08203 0.0451c-0.03086 0.0067-0.06372 0.0031-0.09291-0.0089-0.02919-0.01204-0.05433-0.0322-0.07853-0.05248l-0.89373-0.74912c-0.02117-0.01773-0.04277-0.03543-0.06764-0.04743-0.02488-0.012-0.05248-0.01843-0.08008-0.0175-0.0276 9.95e-4 -0.05481 9e-3 -0.07969 0.02099-0.02488 0.01198-0.04781 0.02799-0.07036 0.04393-0.31783 0.22462-0.6167 0.47537-0.89335 0.74912-0.0233 0.02306-0.04781 0.04604-0.07736 0.06026-0.02955 0.01421-0.06363 0.01877-0.09563 0.01166-0.03201-0.0071-0.06098-0.02523-0.08358-0.04898-0.0226-0.02376-0.03937-0.05271-0.05481-0.08164-0.1425-0.26693-0.19624-0.57011-0.19982-0.87468-0.0012-0.10153 0.0031-0.20312 0.01166-0.30362 0.10551-1.2357 0.78593-2.3339 1.347-3.44 0.06648-0.13105 0.13124-0.26285 0.19476-0.39535z"/>
		</g>
		<g id="secondes">
			<path d="m0-44.789c-0.06059 0-0.15524 0.01867-0.20605 0.0517-0.05079 0.03305-0.09195 0.0799-0.12051 0.13334s-0.04471 0.11295-0.05287 0.173c-0.0082 0.06005-0.0082 0.12095-0.0082 0.18154v42.668c-0.73581 0.16942-1.2597 0.82388-1.2607 1.581-7e-5 0.89769 0.72767 1.6255 1.6254 1.6254 0.89769 7.1e-5 1.6255-0.72767 1.6254-1.6254-9.2e-4 -0.73991-0.50188-1.3827-1.2145-1.569v-42.68c0-0.06059 1.7e-5 -0.1215-0.0082-0.18155-0.0082-0.06005-0.02431-0.11955-0.05287-0.17299s-0.06972-0.1003-0.12051-0.13334-0.14583-0.05171-0.20642-0.05171z"/>
		</g>
		<g id="minutes">
			<path d="m0-44.779c-0.060595 0-0.15525 0.01867-0.20605 0.05171-0.050793 0.03305-0.091948 0.0799-0.12051 0.13334-0.028564 0.05344-0.044708 0.11295-0.052869 0.17299-0.008161 0.06005-0.008164 0.12095-0.008164 0.18155v5.9117c0 1.1586-0.064069 2.3224-0.32149 3.4521-0.25742 1.1297-0.6747 2.2187-0.92366 3.3502-0.43994 1.9995-0.28566 4.1257 0.4385 6.0408-0.1758-0.06203-0.36972-0.07172-0.55086-0.0276-0.18113 0.04412-0.34862 0.14203-0.47622 0.27796-0.087438 0.09315-0.15766 0.20746-0.17571 0.33393-0.00902 0.06324-0.00453 0.12881 0.015939 0.18932 0.020473 0.06051 0.05717 0.11551 0.10729 0.15511 0.064088 0.05063 0.14695 0.07388 0.22858 0.07659 0.081624 0.0027 0.16292-0.01381 0.24179-0.03499 0.078884-0.02118 0.15622-0.04727 0.23596-0.06492 0.079745-0.01766 0.16281-0.02674 0.24337-0.01322 0.097641 0.01641 0.18806 0.06617 0.26006 0.13412 0.07201 0.06795 0.12619 0.15366 0.16366 0.2453 0.074948 0.18328 0.084466 0.38596 0.0898 0.5839 0.054326 2.0157-0.23871 4.0274-0.67681 5.9957-0.39012 1.7526-0.89637 3.4832-1.1375 5.2624-0.2411 1.7792-0.20411 3.6396 0.46456 5.306 0.3978 0.99131 1.0088 1.8899 1.3637 2.8974 0.16937 0.48072 0.2602 1.2681 0.26434 1.8038-1.1144 0.23964-1.9107 1.2241-1.9122 2.364-1.039e-4 1.3374 1.0841 2.4217 2.4215 2.4215 1.3374 1.05e-4 2.4217-1.0841 2.4215-2.4215-0.00139-1.1224-0.7739-2.0967-1.8664-2.3538 0.003136-0.53581 0.094368-1.3303 0.26474-1.8139 0.35495-1.0075 0.96594-1.906 1.3637-2.8974 0.66867-1.6664 0.70565-3.5268 0.46456-5.306-0.2411-1.7793-0.74737-3.5099-1.1375-5.2624-0.43811-1.9682-0.73113-3.98-0.67681-5.9957 0.005339-0.19794 0.014853-0.40063 0.0898-0.5839 0.037477-0.09164 0.091263-0.17735 0.16327-0.2453 0.072013-0.06795 0.16282-0.11772 0.26046-0.13412 0.080549-0.01352 0.16361-0.0044 0.24337 0.01322 0.079747 0.01765 0.15709 0.04374 0.23596 0.06492 0.078885 0.02117 0.16017 0.03769 0.24179 0.03499 0.081632-0.0027 0.16411-0.02595 0.2282-0.07659 0.050124-0.0396 0.087211-0.0946 0.10768-0.15511 0.020461-0.06051 0.024952-0.12608 0.01594-0.18932-0.018053-0.12648-0.088276-0.24078-0.17571-0.33393-0.12759-0.13592-0.29508-0.23385-0.47622-0.27796-0.18113-0.04411-0.37505-0.03443-0.55086 0.0276 0.72418-1.915 0.87844-4.0413 0.4385-6.0408-0.24896-1.1315-0.66624-2.2207-0.92366-3.3502s-0.32149-2.2935-0.32149-3.4521v-5.9117c0-0.06059 1.672e-5 -0.1215-0.008164-0.18154-0.008161-0.06005-0.024307-0.11955-0.052869-0.17299s-0.069719-0.10029-0.12051-0.13334c-0.050793-0.03304-0.14583-0.05171-0.20642-0.05171zm0 10.534c0.66077 1.662 0.99094 3.4547 0.96526 5.2431-0.023805 1.6576-0.35282 3.3104-0.96526 4.8508-0.61244-1.5405-0.94108-3.1932-0.96488-4.8508-0.001591-0.11177-0.001774-0.22372-7.7788e-4 -0.33548 0.017516-1.6766 0.34619-3.3494 0.96566-4.9075zm0 13.448c0.046621 0 0.092967 0.01284 0.13334 0.03615 0.040375 0.02331 0.074731 0.0569 0.10069 0.09563 0.051909 0.07745 0.068569 0.17247 0.082026 0.26474l1.0636 7.293c0.00979 0.06709 0.018719 0.13507 0.012051 0.20254-0.00667 0.06747-0.029223 0.13397-0.069974 0.18815-0.040753 0.05418-0.098934 0.09491-0.16366 0.11507-0.064732 0.02017-0.13515 0.01969-0.20099 0.0035-0.13168-0.03237-0.24028-0.12386-0.33628-0.21964-0.095985-0.09578-0.18819-0.19502-0.28534-0.28962l-0.33548-0.32654-0.3351 0.32654c-0.097153 0.09462-0.18935 0.19382-0.28534 0.28962-0.095993 0.0958-0.20457 0.18766-0.33628 0.22004-0.065847 0.01618-0.13624 0.01628-0.20099-0.0039-0.064738-0.02017-0.12291-0.06088-0.16366-0.11507-0.040757-0.05419-0.063697-0.12067-0.070364-0.18815-0.00159-0.01688-0.00237-0.03402-0.00233-0.05093 1.572e-4 -0.05072 0.00706-0.10129 0.014383-0.15161l1.064-7.293c0.013455-0.09226 0.030117-0.18728 0.082026-0.26474 0.025955-0.03873 0.059923-0.07232 0.1003-0.09563 0.040373-0.02331 0.086719-0.03615 0.13334-0.03615zm-0.88206 10.306c0.036008-9.95e-4 0.071696 0.0044 0.10496 0.01827 0.026418 0.01099 0.050743 0.02699 0.071531 0.04665 0.020792 0.01966 0.03776 0.04332 0.054035 0.06686l0.44083 0.63794c0.025397 0.03674 0.05185 0.07362 0.08708 0.10107 0.035214 0.02743 0.078983 0.04471 0.12362 0.04471 0.044638 0 0.088409-0.01728 0.12362-0.04471 0.03523-0.02745 0.061684-0.06434 0.08708-0.10107l0.44123-0.63794c0.016282-0.02354 0.033244-0.0472 0.054035-0.06686 0.020788-0.01966 0.04511-0.03566 0.07153-0.04665 0.066531-0.02769 0.14317-0.02243 0.2107 0.0027 0.06751 0.02515 0.12687 0.06877 0.18038 0.11701 0.24916 0.22468 0.38604 0.5544 0.42917 0.88712 0.043134 0.33269 1.09e-5 0.67078-0.065309 0.99985-0.23672 1.1934-0.76767 2.3274-1.5324 3.2736-0.76477-0.94621-1.2953-2.0804-1.5321-3.2736-0.048958-0.24681-0.085754-0.49865-0.082804-0.7495 9.945e-4 -0.08362 0.00632-0.16718 0.017105-0.25035 0.043134-0.33271 0.1804-0.66246 0.42957-0.88712 0.053506-0.04824 0.11248-0.09186 0.17999-0.11701 0.033763-0.01258 0.07012-0.01998 0.10613-0.02099z"/>
		</g>
	</defs>
	<g transform="scale(3) translate(20 40)">
		<use xlink:href="#heures" transform="rotate(-30)" />
		<use xlink:href="#minutes" transform="rotate(60)" fill="#550"/>
		<use xlink:href="#secondes" transform="rotate(30)" fill="red"/>
	</g>
</svg>
