<svg width="70" height="256" version="1.1" viewBox="-35 -230 70 256" xmlns="http://www.w3.org/2000/svg" xmlns:xlink="http://www.w3.org/1999/xlink">
	<defs>
		<path id="heures" d="m0.11523-184.92c-0.42481 0-0.84704 0.12771-1.2031 0.35937-0.35608 0.23166-0.6435 0.56285-0.84375 0.9375-0.20026 0.37465-0.31392 0.79194-0.37109 1.2129-0.0572 0.42094-0.058594 0.84668-0.058594 1.2715v6.5703c0 6.63-0.56332 13.316-2.6621 19.605-2.0988 6.289-5.4354 12.148-7.0957 18.566-1.6659 6.4401-1.4246 13.341 0.55078 19.693 0.0719 0.23107 0.14671 0.46421 0.16992 0.70508 0.0232 0.24087-0.0088 0.49402-0.13672 0.69922-0.11942 0.19103-0.31648 0.32654-0.53125 0.39453-0.21478 0.068-0.44798 0.0719-0.66992 0.0332-0.44389-0.0773-0.84054-0.31345-1.2461-0.50977-1.295-0.6269-2.7533-0.88185-4.1914-0.83789-1.4381 0.044-2.858 0.38123-4.2051 0.88672-2.8822 1.0816-5.4698 2.9641-7.3184 5.4258-1.8485 2.4617-2.941 5.5002-3 8.5781-0.059 3.0779 0.9295 6.1792 2.8242 8.6055s4.6936 4.146 7.7285 4.6621c2.3687 0.40281 4.8914 0.0619 6.9727-1.1387 1.7852-1.0297 3.2096-2.7152 3.8379-4.668 2.6187 1.8676 4.7897 4.3645 6.252 7.2305 1.852 3.6299 2.5609 7.8329 2 11.869h-5.5059c-0.25346 0-0.51576 0.0111-0.74219 0.125-0.11322 0.057-0.21434 0.13695-0.29297 0.23633-0.0786 0.0994-0.1337 0.21786-0.16016 0.3418-0.0529 0.24787 0.01224 0.51001 0.14062 0.72851 0.12846 0.2185 0.31346 0.39648 0.49024 0.57813 1.0311 1.0596 1.8416 2.3151 2.5527 3.6113 1.5858 2.8906 2.724 6.0784 2.8926 9.3711 0.2623 5.1226-1.8089 10.052-4.0098 14.686-2.2008 4.6331-4.6141 9.3207-5.1113 14.426-0.42476 4.3607 0.62952 8.8515 2.9492 12.568 0.99313 1.5913 2.2271 3.0248 3.623 4.2773-5.4176 2.4529-8.9015 7.846-8.9102 13.793-5.26e-4 8.3762 6.7898 15.167 15.166 15.166 8.3762 5.3e-4 15.167-6.7898 15.166-15.166-0.0083-5.8858-3.4216-11.235-8.7559-13.723 1.4284-1.2688 2.6895-2.7267 3.7012-4.3476 2.3197-3.7169 3.374-8.2077 2.9492-12.568-0.49727-5.1051-2.9105-9.7927-5.1113-14.426-2.2008-4.6331-4.2721-9.563-4.0098-14.686 0.16861-3.2927 1.3068-6.4805 2.8926-9.3711 0.7111-1.2962 1.5216-2.5518 2.5527-3.6113 0.17677-0.18165 0.35982-0.35963 0.48828-0.57813 0.12845-0.2185 0.19548-0.48064 0.14258-0.72851-0.0265-0.12394-0.08156-0.2424-0.16016-0.3418s-0.17975-0.17938-0.29297-0.23633c-0.22643-0.1139-0.49068-0.125-0.74414-0.125h-5.5039c-0.5609-4.0362 0.14796-8.2393 2-11.869 1.4622-2.8659 3.6333-5.3629 6.252-7.2305 0.62838 1.9525 2.0529 3.6383 3.8379 4.668 2.0813 1.2005 4.604 1.5415 6.9727 1.1387 3.0349-0.51611 5.8338-2.2358 7.7285-4.6621s2.8832-5.5276 2.8242-8.6055c-0.059-3.0779-1.1515-6.1164-3-8.5781s-4.4361-4.3442-7.3184-5.4258c-1.3471-0.50549-2.767-0.84276-4.2051-0.88672-1.4381-0.044-2.8964 0.211-4.1914 0.83789-0.40555 0.19632-0.80417 0.43246-1.248 0.50977-0.22194 0.0387-0.45319 0.0348-0.66797-0.0332s-0.41184-0.2035-0.53125-0.39453c-0.12827-0.2052-0.15995-0.45835-0.13672-0.69922 0.0232-0.24087 0.09812-0.47401 0.16992-0.70508 1.9754-6.352 2.2166-13.253 0.55078-19.693-1.6603-6.4187-4.9969-12.277-7.0957-18.566s-2.6621-12.975-2.6621-19.605v-6.5703c0-0.42481-9.94e-4 -0.85055-0.058594-1.2715-0.0572-0.42095-0.17083-0.83824-0.37109-1.2129-0.20025-0.37465-0.48767-0.70584-0.84375-0.9375s-0.78027-0.35937-1.2051-0.35937zm0 32.508c3.7165 4.5434 6.3296 9.9832 7.5508 15.725 1.632 7.6725 0.73972 15.861-2.5059 23.002l-5.0449-4.1641-5.043 4.1641c-2.2313-4.9096-3.3497-10.314-3.3008-15.705 0.0222-2.4506 0.28492-4.8992 0.79492-7.2969 1.2212-5.7414 3.8323-11.181 7.5488-15.725zm-17.252 42.611c0.27305 5e-3 0.54471 0.0192 0.81641 0.0449 2.1735 0.20554 4.2703 1.0582 6.0234 2.3594s3.1659 3.0416 4.1543 4.9883c1.0838 2.1344 1.6623 4.5225 1.6816 6.916-1.0926 0.015-2.1866-0.11557-3.2441-0.39062-1.193-0.31033-2.3364-0.80745-3.3828-1.459-0.14404-0.83962-0.4331-1.6525-0.86524-2.3867-0.85385-1.4508-2.2617-2.5746-3.877-3.0488-0.76814-0.22552-1.5819-0.3065-2.375-0.19727-0.79308 0.10922-1.5649 0.41286-2.1953 0.90625-0.63044 0.49341-1.1148 1.1787-1.332 1.9492-0.21726 0.77052-0.15944 1.6231 0.19726 2.3398 0.40243 0.80854 1.1363 1.3912 1.7715 2.0332 0.31761 0.321 0.61732 0.66455 0.83789 1.0586s0.35838 0.84186 0.33789 1.293c-0.016 0.35167-0.12918 0.69797-0.31641 0.99609-0.18722 0.29813-0.44658 0.54937-0.74609 0.73438-0.59901 0.37001-1.3449 0.46686-2.0371 0.33789-0.69216-0.12896-1.3327-0.47131-1.877-0.91797-0.54427-0.44665-0.99801-0.99528-1.4043-1.5703-0.97917-1.3858-1.7061-2.9608-2.0371-4.625-0.12414-0.62408-0.19062-1.2597-0.19727-1.8965-0.0111-1.0613 0.14733-2.1241 0.49219-3.127 0.70993-2.0646 2.21-3.8305 4.0918-4.9375 1.6465-0.96864 3.5711-1.4361 5.4824-1.4004zm34.506 0c1.9113-0.0357 3.8359 0.43175 5.4824 1.4004 1.8818 1.107 3.3819 2.8729 4.0918 4.9375 0.55177 1.6046 0.624 3.3592 0.29297 5.0234s-1.0579 3.2392-2.0371 4.625c-0.40629 0.57503-0.85808 1.1237-1.4023 1.5703-0.54426 0.44666-1.1848 0.78901-1.877 0.91797-0.69217 0.12897-1.4381 0.0321-2.0371-0.33789-0.2995-0.18501-0.55887-0.43625-0.74609-0.73438-0.18723-0.29812-0.30237-0.64442-0.31836-0.99609-0.0205-0.45111 0.11927-0.89893 0.33984-1.293s0.52028-0.73759 0.83789-1.0586c0.63522-0.64201 1.3671-1.2247 1.7695-2.0332 0.35671-0.7167 0.41648-1.5693 0.19922-2.3398-0.21725-0.77052-0.70159-1.4558-1.332-1.9492-0.63043-0.4934-1.4022-0.79702-2.1953-0.90625-0.79307-0.10922-1.6069-0.0283-2.375 0.19727-1.6152 0.47423-3.0231 1.5981-3.877 3.0488-0.43214 0.73424-0.72119 1.5471-0.86523 2.3867-1.0464 0.65154-2.1898 1.1487-3.3828 1.459-1.0576 0.27508-2.1515 0.40558-3.2441 0.39062 0.0193-2.3935 0.59787-4.7816 1.6816-6.916 0.98844-1.9467 2.3993-3.6871 4.1523-4.9883 1.7531-1.3012 3.8519-2.1538 6.0254-2.3594 0.27169-0.0257 0.54337-0.0398 0.81641-0.0449zm-17.254 60.281c0.32075 0.66498 0.64804 1.3271 0.98047 1.9863 2.8027 5.5578 6.0813 11.097 6.7676 17.283 0.1123 1.0123 0.15219 2.0384 0.02344 3.0488-0.12877 1.0104-0.43078 2.0062-0.96875 2.8711-0.0838 0.13472-0.17548 0.2682-0.29102 0.37695-0.11552 0.10875-0.25708 0.19285-0.41211 0.22657-0.15504 0.0337-0.32012 0.0156-0.4668-0.0449-0.14666-0.0605-0.27294-0.16176-0.39453-0.26368l-4.4902-3.7637c-0.10634-0.0891-0.21486-0.178-0.33984-0.23828-0.12498-0.0603-0.26366-0.0926-0.40234-0.0879-0.13869 5e-3 -0.27537 0.0453-0.40039 0.10547-0.12502 0.0602-0.2402 0.14062-0.35352 0.2207-1.5968 1.1285-3.0984 2.3883-4.4883 3.7637-0.11709 0.11587-0.24022 0.23132-0.38867 0.30274-0.14844 0.0714-0.31966 0.0943-0.48047 0.0586s-0.30639-0.12674-0.41992-0.24609c-0.11355-0.11935-0.19781-0.26484-0.27539-0.41016-0.71595-1.3411-0.98594-2.8643-1.0039-4.3945-6e-3 -0.51009 0.015494-1.0205 0.058594-1.5254 0.5301-6.2085 3.9486-11.726 6.7676-17.283 0.33401-0.65842 0.65937-1.3206 0.97852-1.9863zm-0.11523 43.732c3.1826-3.3e-4 5.7629 2.5792 5.7637 5.7617 3.344e-4 3.1833-2.5803 5.764-5.7637 5.7637-3.1833 3.4e-4 -5.764-2.5803-5.7637-5.7637 7.426e-4 -3.1826 2.5811-5.7621 5.7637-5.7617z"/>
		<path id="minutes" d="m0.11523-225c-0.30444 0-0.77998 0.0938-1.0352 0.25977-0.25519 0.16603-0.46196 0.40142-0.60547 0.66992s-0.22462 0.56746-0.26562 0.86914-0.041016 0.60768-0.041016 0.91211v29.701c0 5.821-0.32189 11.668-1.6152 17.344s-3.3898 11.147-4.6406 16.832c-2.2103 10.046-1.4352 20.728 2.2031 30.35-0.88326-0.31169-1.8575-0.3603-2.7676-0.13868-0.91004 0.22163-1.7515 0.71358-2.3926 1.3965-0.4393 0.468-0.79211 1.0423-0.88281 1.6777-0.0453 0.31772-0.02272 0.64717 0.08008 0.95117 0.10286 0.30402 0.28723 0.58034 0.53906 0.7793 0.32199 0.25439 0.73831 0.37117 1.1484 0.38477s0.81851-0.0694 1.2148-0.17578c0.39632-0.1064 0.78489-0.23747 1.1855-0.32618 0.40065-0.0887 0.81797-0.13436 1.2227-0.0664 0.49056 0.0824 0.94484 0.33246 1.3066 0.67383 0.36179 0.34138 0.63398 0.77202 0.82226 1.2324 0.37655 0.92083 0.42437 1.9391 0.45117 2.9336 0.27294 10.127-1.1993 20.234-3.4004 30.123-1.96 8.8054-4.5035 17.5-5.7148 26.439s-1.0255 18.286 2.334 26.658c1.9986 4.9805 5.0682 9.495 6.8516 14.557 0.85094 2.4152 1.3073 6.3709 1.3281 9.0625-5.5989 1.204-9.5998 6.1501-9.6074 11.877-5.26e-4 6.7193 5.4467 12.167 12.166 12.166 6.7193 5.3e-4 12.167-5.4467 12.166-12.166-7e-3 -5.6389-3.8882-10.534-9.377-11.826 0.015756-2.692 0.47412-6.6838 1.3301-9.1133 1.7833-5.0616 4.853-9.5761 6.8516-14.557 3.3595-8.372 3.5453-17.719 2.334-26.658-1.2113-8.9392-3.7549-17.634-5.7148-26.439-2.2011-9.8887-3.6733-19.996-3.4004-30.123 0.0268-0.99449 0.074622-2.0128 0.45117-2.9336 0.18829-0.4604 0.45852-0.89104 0.82031-1.2324 0.3618-0.34137 0.81803-0.59143 1.3086-0.67383 0.40469-0.0679 0.82201-0.0223 1.2227 0.0664 0.40066 0.0887 0.78923 0.21978 1.1855 0.32618 0.39633 0.10636 0.80471 0.18938 1.2148 0.17578 0.41013-0.0136 0.8245-0.13038 1.1465-0.38477 0.25183-0.19896 0.43816-0.47528 0.54102-0.7793 0.1028-0.30401 0.12536-0.63345 0.08008-0.95117-0.0907-0.63545-0.44351-1.2097-0.88281-1.6777-0.64104-0.68291-1.4825-1.1749-2.3926-1.3965-0.91004-0.22162-1.8843-0.17301-2.7676 0.13868 3.6384-9.6212 4.4134-20.304 2.2031-30.35-1.2508-5.685-3.3473-11.157-4.6406-16.832s-1.6152-11.523-1.6152-17.344v-29.701c0-0.30443 8.4e-5 -0.61043-0.041016-0.91211-0.041-0.30168-0.12212-0.60064-0.26562-0.86914s-0.35028-0.50389-0.60547-0.66992c-0.25519-0.166-0.73267-0.25977-1.0371-0.25977zm0 52.926c3.3198 8.3502 4.9786 17.357 4.8496 26.342-0.1196 8.3279-1.7726 16.632-4.8496 24.371-3.077-7.7396-4.7281-16.043-4.8477-24.371-8e-3 -0.56156-0.00891-1.124-0.00391-1.6855 0.088-8.4235 1.7393-16.828 4.8516-24.656zm0 67.564c0.23423 0 0.46708 0.0645 0.66992 0.18164 0.20285 0.11711 0.37546 0.28589 0.50586 0.48047 0.2608 0.38915 0.3445 0.86653 0.41211 1.3301l5.3438 36.641c0.0492 0.33706 0.094047 0.67861 0.060547 1.0176-0.0335 0.33898-0.14682 0.67308-0.35156 0.94531-0.20475 0.27222-0.49706 0.47683-0.82227 0.57813-0.32522 0.10131-0.679 0.0989-1.0098 0.0176-0.66156-0.16264-1.2072-0.62231-1.6895-1.1035-0.48224-0.4812-0.94547-0.97983-1.4336-1.4551l-1.6855-1.6406-1.6836 1.6406c-0.48811 0.47539-0.9513 0.97378-1.4336 1.4551-0.48228 0.4813-1.0278 0.94285-1.6895 1.1055-0.33082 0.0813-0.6845 0.0818-1.0098-0.0195-0.32525-0.10134-0.61751-0.30585-0.82227-0.57813-0.20477-0.27227-0.32002-0.60628-0.35352-0.94531-8e-3 -0.0848-0.011918-0.17092-0.011718-0.25586 7.9e-4 -0.25483 0.035465-0.50889 0.072265-0.76172l5.3457-36.641c0.0676-0.46355 0.15131-0.94094 0.41211-1.3301 0.1304-0.19457 0.30106-0.36336 0.50391-0.48047 0.20284-0.11711 0.43569-0.18164 0.66992-0.18164zm-4.4316 51.777c0.18091-5e-3 0.36021 0.0222 0.52734 0.0918 0.13273 0.0552 0.25494 0.13558 0.35938 0.23438 0.10446 0.0988 0.18971 0.21765 0.27148 0.33593l2.2148 3.2051c0.1276 0.18457 0.2605 0.3699 0.4375 0.50781 0.17692 0.13783 0.39682 0.22461 0.62109 0.22461s0.44418-0.0868 0.62109-0.22461c0.177-0.13791 0.30991-0.32324 0.4375-0.50781l2.2168-3.2051c0.081801-0.11828 0.16702-0.23712 0.27148-0.33593 0.10444-0.0988 0.22664-0.17914 0.35938-0.23438 0.33426-0.13911 0.71933-0.11271 1.0586 0.0137 0.33918 0.12638 0.63743 0.3455 0.90625 0.58789 1.2518 1.1288 1.9395 2.7854 2.1562 4.457 0.21671 1.6715 5.5e-5 3.3701-0.32812 5.0234-1.1893 5.9957-3.8569 11.693-7.6992 16.447-3.8423-4.7539-6.5079-10.452-7.6973-16.447-0.24597-1.24-0.43084-2.5053-0.41602-3.7656 5e-3 -0.42011 0.031738-0.83994 0.085937-1.2578 0.21671-1.6716 0.90634-3.3283 2.1582-4.457 0.26882-0.24238 0.56512-0.46151 0.9043-0.58789 0.16963-0.0632 0.35229-0.1004 0.5332-0.10547zm4.3164 46.947c3.1826-3.3e-4 5.7629 2.5792 5.7637 5.7617 3.344e-4 3.1833-2.5803 5.764-5.7637 5.7637-3.1833 3.4e-4 -5.764-2.5803-5.7637-5.7637 7.426e-4 -3.1826 2.5811-5.7621 5.7637-5.7617z"/>
		<path id="secondes" d="m0.11523-225.01c-0.30444 0-0.77994 0.0938-1.0352 0.25976-0.25519 0.16603-0.46196 0.40142-0.60547 0.66992s-0.22462 0.56747-0.26562 0.86915-0.041016 0.60767-0.041016 0.91211v214.37c-3.6968 0.85121-6.3289 4.1393-6.334 7.9434-3.53e-4 4.5101 3.6559 8.1667 8.166 8.166 4.5101 3.57e-4 8.1667-3.6559 8.166-8.166-0.0046152-3.7174-2.5215-6.9469-6.1016-7.8828v-214.43c0-0.30443 8.44e-5 -0.61043-0.041016-0.91211-0.041-0.30168-0.12212-0.60064-0.26562-0.86914s-0.35028-0.50389-0.60547-0.66992c-0.25519-0.166-0.73268-0.25977-1.0371-0.25977zm-0.11523 221.16c2.1362-2.215e-4 3.8686 1.731 3.8691 3.8672 2.244e-4 2.1367-1.7324 3.8693-3.8691 3.8691-2.1367 2.283e-4 -3.8693-1.7324-3.8691-3.8691 4.985e-4 -2.1362 1.7329-3.8675 3.8691-3.8672z"/>
	</defs>
<!--
	<use transform="rotate(30)" fill="red" xlink:href="#heures"></use>
	<use transform="rotate(90)" fill="purple" xlink:href="#minutes"></use>
	<use transform="rotate(90)" fill="yellow" xlink:href="#secondes"></use>
-->
</svg>
