<svg width="100" height="100" version="1.1" viewBox="-50 -50 100 100" xmlns="http://www.w3.org/2000/svg">
	<g id="heures">
		<path d="m-9.6414-9.4311c0.24423 0.42594 0.49847 0.84613 0.76245 1.2601 1.734 2.7194 3.8758 5.153 5.7629 7.7684 0.51128 0.70859 1.0198 1.4467 1.7391 1.9429 0.35963 0.24808 0.76995 0.43044 1.2028 0.49014 0.4328 0.059701 0.88866-0.00859 1.2663-0.2283 0.47205-0.27465 0.79344-0.77283 0.90876-1.3066s0.036551-1.0983-0.16291-1.6067c-0.39893-1.0168-1.2374-1.7847-2.0313-2.5348-1.8713-1.7681-3.6492-3.6556-5.0799-5.7961-0.26476-0.39611-0.51958-0.8051-0.67326-1.2561-0.15868-0.46565-0.20459-0.96157-0.23052-1.4528-0.1172-2.2199 0.15355-4.4598 0.79632-6.5879 0.28256 0.09527 0.60513 0.0643 0.8644-0.08299 0.26694-0.15164 0.46194-0.4243 0.51916-0.72593 1.1798-0.40313 2.282-1.0322 3.2292-1.8431 0.62376-0.53402 1.1783-1.1435 1.7809-1.7013 0.3279-0.3035 0.67042-0.59196 1.0351-0.85006 0.5683-0.40217 1.1867-0.72804 1.8123-1.0335 0.49515-0.24179 1.0044-0.47707 1.4122-0.84772 0.20387-0.18533 0.3801-0.40405 0.49805-0.65304s0.17586-0.52929 0.14448-0.80302c-0.033485-0.29208-0.16826-0.56865-0.36326-0.78866s-0.44823-0.38477-0.72157-0.49302c-0.54667-0.21651-1.1568-0.20775-1.7397-0.13031-0.97323 0.12931-1.9217 0.44268-2.7804 0.91864 0.5896-1.8004 1.0334-3.6485 1.3256-5.5204 0.11912-0.76297 0.21062-1.5599-0.02832-2.2942-0.11947-0.36716-0.3235-0.71145-0.61408-0.96569-0.29059-0.25424-0.67103-0.4132-1.0571-0.40532-0.45917 0.0094-0.89182 0.25201-1.2069 0.58618-0.31505 0.33417-0.52481 0.75376-0.69144 1.1817-0.46038 1.1824-0.62076 2.4802-0.46208 3.7391-0.11263-0.25794-0.30488-0.48046-0.54372-0.62935s-0.52328-0.22353-0.80446-0.21109c-0.40974 0.01813-0.80718 0.22635-1.0553 0.5529-0.26718-0.25028-0.61797-0.40972-0.98221-0.44646-0.45575-0.04597-0.91635 0.09773-1.3082 0.33498-0.39184 0.23724-0.72188 0.56378-1.0252 0.90703-1.6247 1.8387-2.5774 4.3366-2.2698 6.771 0.13302 1.0529 0.49577 2.0761 1.0556 2.9776-0.10815 0.32195-0.10135 0.68122 0.01892 0.99885 0.085891 0.22684 0.22836 0.43201 0.41089 0.59174-0.93308 2.8098-1.2496 5.8225-0.92078 8.7648 0.052711 0.47169 0.12176 0.94156 0.20698 1.4085z" fill="#a9a9a9"/>
		<path d="m-5.9904-22.438c0.097372-0.512 0.29135-1.0055 0.56869-1.4467 0.55447-0.88214 1.45-1.5441 2.4565-1.8135 0.44197-0.11832 0.90352-0.16319 1.36-0.13221-0.6758 0.25407-1.3213 0.58863-1.9185 0.99435-0.43129 0.29301-0.83725 0.62289-1.2162 0.98105-0.45846 0.43332-0.87757 0.90825-1.2505 1.417zm0.7387-4.8349c0.33669-0.48369 0.62234-1.0029 0.85067-1.5462 0.16797-0.39966 0.30647-0.82087 0.31034-1.2544 0.00293-0.3288-0.073257-0.65804-0.22034-0.95213 0.19152-0.1204 0.41936-0.18218 0.64548-0.175 0.32368 0.01027 0.63533 0.1617 0.86496 0.39005s0.38015 0.52921 0.45498 0.84429c0.087935 0.37027 0.074648 0.7602-0.00531 1.1323-0.079953 0.37207-0.22504 0.72763-0.39803 1.0666-0.20434 0.40043-0.4599 0.79233-0.83621 1.0383-0.18816 0.12297-0.40461 0.20616-0.62872 0.22357-0.2241 0.0174-0.45564-0.03338-0.64307-0.15745-0.20775-0.13753-0.35437-0.36406-0.39476-0.60991zm-1.861 7.0793c-1.1552-0.75123-2.0282-1.9262-2.4139-3.2491-0.36804-1.2623-0.29473-2.6349 0.11841-3.8832s1.1556-2.3746 2.0744-3.3153c0.27969-0.28636 0.58436-0.56205 0.95435-0.71482 0.18499-0.07639 0.38482-0.12038 0.58488-0.11462 0.20006 0.0058 0.40027 0.06267 0.5661 0.17473 0.14061 0.09502 0.25408 0.22783 0.33427 0.37739 0.080187 0.14956 0.1277 0.31555 0.14816 0.48402 0.040913 0.33693-0.025064 0.67813-0.11967 1.0041-0.22973 0.7915-0.6334 1.5342-1.1868 2.1449-0.098114 0.10828-0.20227 0.21358-0.32726 0.28928-0.12499 0.07569-0.2739 0.12005-0.41823 0.09726-0.091987-0.01452-0.17889-0.0559-0.25161-0.11407-0.072723-0.05817-0.13154-0.13277-0.17598-0.2146-0.088884-0.16368-0.1198-0.35263-0.1307-0.53856-0.028509-0.48631 0.071025-0.97345 0.23215-1.4332 0.16112-0.45973 0.38295-0.89545 0.60687-1.3281 0.031273-0.06042 0.063175-0.12269 0.069812-0.1904 0.00332-0.03386 2.42e-5 -0.0687-0.012547-0.10031-0.012571-0.03161-0.034793-0.05981-0.064225-0.07687-0.026951-0.01562-0.059049-0.02141-0.090077-0.01865-0.031028 0.0028-0.061002 0.01376-0.087826 0.0296-0.053648 0.03167-0.093934 0.08133-0.13188 0.13074-0.20621 0.26852-0.3791 0.56108-0.53981 0.85907-0.1895 0.35136-0.36374 0.71375-0.47207 1.098-0.10833 0.38423-0.14887 0.79311-0.069224 1.1843 0.079643 0.39118 0.28661 0.76343 0.60719 1.0013 0.16029 0.11895 0.34713 0.20307 0.54362 0.23816 0.1965 0.03509 0.40244 0.02049 0.59001-0.04777 0.18499-0.06731 0.35073-0.18663 0.47326-0.34071 0.078152 0.22402 0.21528 0.42716 0.39382 0.58342s0.39806 0.26525 0.63046 0.31303c0.29053 0.05973 0.59644 0.0235 0.87499-0.07843s0.5309-0.26754 0.75374-0.4633c0.75889-0.6667 1.1619-1.6608 1.3313-2.6567s0.13052-2.0134 0.15025-3.0233c0.019546-1.0001 0.10168-2.0188 0.48226-2.9438 0.096-0.23333 0.21312-0.4629 0.38865-0.64413 0.087769-0.09062 0.18974-0.16826 0.30357-0.22266 0.11382-0.0544 0.23971-0.08514 0.36584-0.08257 0.19313 0.0039 0.38061 0.08684 0.52567 0.21442 0.14505 0.12758 0.24922 0.29764 0.31431 0.47952 0.13018 0.36375 0.10696 0.76231 0.075304 1.1474-0.23394 2.8453-0.84015 5.6597-1.7983 8.349 1.0792-1.2845 2.6772-2.1199 4.3479-2.273 0.21264-0.01948 0.42751-0.02834 0.63926-8.86e-4 0.21175 0.02746 0.42127 0.09261 0.59856 0.21162 0.14118 0.09477 0.26056 0.22389 0.33543 0.37655 0.074873 0.15266 0.10385 0.32903 0.072385 0.49612-0.037615 0.19978-0.15841 0.37654-0.30785 0.51437-0.14943 0.13783-0.32708 0.24086-0.50519 0.33885-0.89499 0.49238-1.8434 0.88749-2.711 1.4266-0.39231 0.24378-0.76672 0.51626-1.1204 0.81336-0.68898 0.57878-1.2958 1.2477-1.9458 1.8699-0.65 0.62224-1.356 1.2061-2.179 1.5698-0.79402 0.35091-1.6829 0.48441-2.5449 0.38223 0.11366 0.13176 0.24845 0.24527 0.39763 0.33485 0.22306 0.13394 0.4784 0.21371 0.73804 0.23058-0.27172 0.27524-0.62682 0.46708-1.006 0.54346-0.37916 0.07638-0.78083 0.037-1.1379-0.11156-0.56596-0.23545-1.0068-0.75183-1.1505-1.3477z" fill="#fff"/>
		<circle r=".75"/>
	</g>
	<g id="minutes">
		<path d="m0.70827-24.214c0.36984-0.28791 0.66441-0.67166 0.84696-1.1034 0.19237-0.45493 0.25956-0.96206 0.19229-1.4514 0.47277-0.37894 0.85759-0.86691 1.1159-1.415 0.21995-0.46672 0.34833-0.97638 0.37574-1.4916 0.78235-0.70831 1.292-1.7106 1.4034-2.7601 0.11138-1.0495-0.17651-2.1364-0.79276-2.9932-0.12555-0.17455-0.26501-0.34066-0.43015-0.47835-0.16515-0.13769-0.35728-0.24652-0.56637-0.29666-0.22396-0.05371-0.46412-0.03775-0.67901 0.04511s-0.40358 0.23227-0.53351 0.42244c-0.19393-0.51109-0.58079-0.94631-1.0656-1.1988-0.37518-0.1954-0.80618-0.28211-1.2277-0.24698-0.42155 0.03513-0.83226 0.19198-1.1699 0.44678 0.073042-1.1984 0.063386-2.4019-0.028877-3.599-0.053583-0.69524-0.14263-1.4121-0.49725-2.0124-0.17731-0.3002-0.42111-0.56528-0.72254-0.74049s-0.66229-0.25624-1.0058-0.1964c-0.28081 0.04892-0.54186 0.1898-0.7518 0.3826-0.20995 0.19279-0.37025 0.43595-0.48488 0.69692-0.22926 0.52195-0.2767 1.1033-0.30767 1.6725-0.072411 1.3307-0.071572 2.6655 0.00251 3.9961-0.96521 0.75496-1.6372 1.8755-1.8485 3.0825-0.26517 1.5145 0.19196 3.1004 1.0493 4.3768 0.54609 0.81304 1.2516 1.5186 2.0646 2.0646-0.067466 0.56406 0.036631 1.1475 0.29501 1.6534 0.25902 0.5072 0.67207 0.93444 1.1702 1.2104 1.3702 7.4238 1.6447 15.049 0.81174 22.552-0.061291 0.55209-0.12851 1.1107-0.052747 1.661 0.084838 0.61622 0.36011 1.2163 0.82193 1.633 0.23091 0.20835 0.50605 0.36892 0.80382 0.4587 0.29777 0.08979 0.61803 0.1079 0.92226 0.043299 0.3733-0.079263 0.7153-0.2815 0.98595-0.55055s0.47206-0.60289 0.61203-0.95792c0.27993-0.71007 0.31605-1.4894 0.33971-2.2523 0.1197-3.8593-0.05354-7.7234-0.33672-11.572-0.27296-3.7096-1.3116-11.082-1.3116-11.082z" fill="#a9a9a9"/>
		<path d="m-4.8669-36.296c-0.12484-1.5531-0.15611-3.1137-0.093573-4.6705 0.012706-0.3163 0.030482-0.63845 0.14233-0.93459 0.055926-0.14807 0.13552-0.28828 0.24272-0.40473s0.24275-0.20854 0.39416-0.25464c0.21995-0.06697 0.46443-0.03262 0.66882 0.07267s0.36997 0.27748 0.48814 0.4747c0.23633 0.39445 0.28435 0.87011 0.31978 1.3286 0.13764 1.7811 0.16891 3.5705 0.093573 5.3554zm2.6458 1.0909c0.10685-0.46184 0.42466-0.87045 0.84598-1.0877 0.31984-0.16492 0.69485-0.2204 1.0488-0.15532 0.35393 0.06507 0.68463 0.25026 0.92519 0.51789 0.32835 0.3653 0.47781 0.86307 0.51071 1.3531 0.032906 0.49008-0.040811 0.98023-0.10786 1.4668-0.057958 0.4206-0.11515 0.8543-0.32686 1.2223-0.10585 0.18401-0.25061 0.34834-0.43157 0.45932s-0.3995 0.16594-0.60932 0.1337c-0.20914-0.03214-0.40334-0.15214-0.52565-0.3248 0.51602-0.3079 0.90165-0.82702 1.0474-1.41 0.036968-0.14786 0.058926-0.30043 0.051291-0.45265s-0.045866-0.3035-0.1175-0.43803c-0.071631-0.13452-0.1762-0.25041-0.29863-0.34118s-0.26159-0.15587-0.40057-0.21841zm3.8576 2.1861c0.057268-0.4699 0.094961-0.9428 0.092293-1.4162-0.00117-0.20706-0.010057-0.41407-0.026644-0.62047 0.065522-0.11442 0.16955-0.20634 0.29117-0.25727 0.15095-0.06322 0.32502-0.06219 0.48042-0.0109 0.15541 0.0513 0.29256 0.15055 0.40164 0.27256 0.21814 0.24402 0.3219 0.56735 0.40706 0.88338 0.17042 0.63241 0.29028 1.2832 0.28272 1.9382-0.00756 0.65493-0.14715 1.3165-0.46923 1.8868-0.048935 0.08665-0.10277 0.17205-0.17519 0.2403-0.072418 0.06826-0.16579 0.11857-0.26522 0.12259-0.068184 0.0028-0.13598-0.01625-0.19728-0.04623-0.061304-0.02998-0.11673-0.07065-0.17-0.1133-0.45602-0.36509-0.77549-0.89689-0.88364-1.471 0.096932-0.46598 0.17432-0.93602 0.2319-1.4085zm-7.0628-0.96491c0.14482 0.05526 0.28267 0.12878 0.40924 0.21826 0.27135 0.19184 0.48555 0.4523 0.69233 0.71244s0.41228 0.52596 0.6718 0.73353c0.45459 0.36359 1.065 0.52328 1.6403 0.43473 0.57533-0.08854 1.1076-0.42247 1.4426-0.89853 0.072847-0.10353 0.13722-0.21444 0.17542-0.33513 0.038194-0.12069 0.049121-0.25216 0.015561-0.37422-0.033734-0.12269-0.11196-0.2307-0.21084-0.3108-0.098875-0.0801-0.21715-0.13184-0.33481-0.18028l-3.2466-1.3368c-0.12557-0.0517-0.25208-0.10247-0.38388-0.1352s-0.26848-0.04736-0.40393-0.03769c-0.2709 0.01935-0.52822 0.13928-0.74001 0.3093-0.32419 0.26024-0.55212 0.62461-0.70934 1.0095-0.37102 0.90817-0.36722 1.9384-0.13642 2.8919 0.29643 1.2246 0.96266 2.3571 1.889 3.2112s2.1092 1.4262 3.3538 1.6224c-0.3005 0.22203-0.66929 0.35028-1.0427 0.36263-0.51362 0.01698-1.0307-0.19067-1.39-0.55815 0.11914 0.85956 0.67552 1.6469 1.446 2.0462 0.44047 0.22828 0.94866 0.33319 1.4406 0.26908 0.49196-0.0641 0.9643-0.30205 1.2876-0.67832 0.34392-0.40023 0.5069-0.95027 0.43652-1.4733-0.25551 0.08256-0.52278 0.12865-0.79119 0.13641-0.25677 0.0074-0.51454-0.02019-0.76391-0.08185 0.88002-0.13644 1.7001-0.62649 2.2372-1.3368 0.37628-0.49769 0.61471-1.0985 0.68207-1.7188-0.32744-0.15098-0.62556-0.36526-0.87304-0.6275-0.24562-0.26027-0.44119-0.56759-0.57293-0.90032-0.30397 0.25836-0.72612 0.37162-1.1186 0.30011-0.22227-0.0405-0.43396-0.13778-0.60945-0.28008-0.17549-0.14229-0.31443-0.3293-0.4-0.5384l-0.27282 0.08185c0.46788 0.42133 0.79766 0.9936 0.92761 1.6097 0.16724 0.79287-0.004479 1.6515-0.4638 2.319 0.20211-0.77202 0.14366-1.6098-0.1637-2.3463-0.25755-0.61712-0.68721-1.1614-1.2277-1.5551-0.52137-0.14042-1.0262-0.34234-1.5005-0.60022-0.30649-0.16661-0.60278-0.35849-0.8488-0.6058-0.24602-0.24732-0.44058-0.55399-0.51532-0.89474-0.03332-0.1519-0.042565-0.30905-0.027283-0.4638z" fill="#fff"/>
		<circle r=".5"/>
	</g>
	<g id="secondes">
		<path d="m0-43.738a0.8273 0.8273 0 0 0-0.82812 0.82617v41.283a1.8273 1.8273 0 0 0-1 1.6289 1.8273 1.8273 0 0 0 1.8281 1.8281 1.8273 1.8273 0 0 0 1.8262-1.8281 1.8273 1.8273 0 0 0-1-1.627v-41.285a0.8273 0.8273 0 0 0-0.82617-0.82617z"/>
	</g>
</svg>
