<?xml version="1.0" encoding="UTF-8" standalone="no"?>
<!-- Created with Inkscape (http://www.inkscape.org/) -->

<svg
   xmlns:dc="http://purl.org/dc/elements/1.1/"
   xmlns:cc="http://creativecommons.org/ns#"
   xmlns:rdf="http://www.w3.org/1999/02/22-rdf-syntax-ns#"
   xmlns:svg="http://www.w3.org/2000/svg"
   xmlns="http://www.w3.org/2000/svg"
   xmlns:sodipodi="http://sodipodi.sourceforge.net/DTD/sodipodi-0.dtd"
   xmlns:inkscape="http://www.inkscape.org/namespaces/inkscape"
   width="100"
   height="100"
   viewBox="-50 -50 100 100"
   version="1.1"
   id="svg8"
   inkscape:version="0.92.3 (2405546, 2018-03-11)"
   sodipodi:docname="mains.svg">
  <defs
     id="defs2">
    <inkscape:path-effect
       is_visible="true"
       id="path-effect916"
       effect="spiro" />
    <inkscape:path-effect
       is_visible="true"
       id="path-effect906"
       effect="spiro" />
    <inkscape:path-effect
       effect="spiro"
       id="path-effect856"
       is_visible="true" />
    <inkscape:path-effect
       effect="spiro"
       id="path-effect852"
       is_visible="true" />
    <inkscape:path-effect
       effect="spiro"
       id="path-effect847"
       is_visible="true" />
    <inkscape:path-effect
       effect="spiro"
       id="path-effect842"
       is_visible="true" />
    <inkscape:path-effect
       effect="spiro"
       id="path-effect838"
       is_visible="true" />
    <inkscape:path-effect
       effect="spiro"
       id="path-effect834"
       is_visible="true" />
    <clipPath
       clipPathUnits="userSpaceOnUse"
       id="clipPath828">
      <rect
         style="opacity:1;vector-effect:none;fill:#ffff00;fill-opacity:0.54708521;fill-rule:evenodd;stroke:none;stroke-width:0.26458332;stroke-linecap:round;stroke-linejoin:round;stroke-miterlimit:4;stroke-dasharray:none;stroke-dashoffset:0;stroke-opacity:1"
         id="rect830"
         width="89.323311"
         height="129.5188"
         x="51.733082"
         y="72.947372" />
    </clipPath>
  </defs>
  <sodipodi:namedview
     id="base"
     pagecolor="#ffffff"
     bordercolor="#666666"
     borderopacity="1.0"
     inkscape:pageopacity="0.0"
     inkscape:pageshadow="2"
     inkscape:zoom="16.318111"
     inkscape:cx="47.726564"
     inkscape:cy="68.851359"
     inkscape:document-units="px"
     inkscape:current-layer="layer1"
     showgrid="false"
     inkscape:window-width="1331"
     inkscape:window-height="991"
     inkscape:window-x="-8"
     inkscape:window-y="0"
     inkscape:window-maximized="0"
     inkscape:snap-global="true"
     inkscape:snap-center="true"
     units="px"
     viewbox-y="-55"
     inkscape:snap-page="true"
     showguides="true"
     inkscape:guide-bbox="true"
     inkscape:snap-smooth-nodes="true">
    <sodipodi:guide
       position="50,50"
       orientation="0,1"
       id="guide899"
       inkscape:locked="false" />
    <sodipodi:guide
       position="50,50"
       orientation="1,0"
       id="guide901"
       inkscape:locked="false" />
  </sodipodi:namedview>
  <metadata
     id="metadata5">
    <rdf:RDF>
      <cc:Work
         rdf:about="">
        <dc:format>image/svg+xml</dc:format>
        <dc:type
           rdf:resource="http://purl.org/dc/dcmitype/StillImage" />
        <dc:title></dc:title>
      </cc:Work>
    </rdf:RDF>
  </metadata>
  <g
     inkscape:label="Calque 1"
     inkscape:groupmode="layer"
     id="layer1">
    <g
       id="heures">
      <path
         id="path854"
         d="m -9.6413686,-9.431108 c 0.2442281,0.4259382 0.4984722,0.8461333 0.7624512,1.260121 1.7340307,2.7194106 3.8757596,5.1529713 5.7629443,7.7684236 0.5112849,0.70859057 1.0198238,1.4466861 1.7390821,1.9428517 0.3596292,0.2480828 0.76995272,0.4304384 1.20275057,0.4901395 0.43279786,0.059701 0.8886605,-0.00859 1.26629053,-0.2283021 C 1.5642019,1.5274762 1.8855933,1.0292993 2.0009127,0.49547662 2.1162321,-0.03834606 2.0374636,-0.60282742 1.8380004,-1.1112363 1.4390738,-2.1280542 0.60062922,-2.8959153 -0.19330849,-3.6460645 -2.0646492,-5.414194 -3.8425508,-7.3016954 -5.2732051,-9.442122 c -0.2647601,-0.3961121 -0.5195759,-0.805104 -0.6732569,-1.256086 -0.1586803,-0.465653 -0.204589,-0.961572 -0.2305239,-1.452835 -0.1171962,-2.219945 0.1535539,-4.459842 0.7963229,-6.587925 0.2825588,0.09527 0.6051321,0.0643 0.8644039,-0.08299 0.2669427,-0.151643 0.461937,-0.4243 0.519158,-0.725929 1.1798413,-0.40313 2.2820284,-1.032217 3.22915216,-1.843078 0.62376358,-0.534023 1.17831083,-1.143515 1.78092644,-1.701293 0.3278978,-0.3035 0.6704154,-0.59196 1.0351286,-0.850056 0.5682992,-0.402168 1.1866935,-0.728038 1.8122947,-1.033531 0.4951509,-0.241792 1.0044144,-0.477072 1.4121571,-0.847725 0.2038714,-0.185327 0.3801044,-0.404046 0.4980522,-0.653039 0.1179479,-0.248994 0.175861,-0.529291 0.1444797,-0.803015 -0.033485,-0.292078 -0.1682599,-0.568652 -0.3632638,-0.788662 -0.1950038,-0.220009 -0.4482309,-0.384771 -0.7215651,-0.493025 -0.5466685,-0.216508 -1.1568256,-0.207751 -1.7396849,-0.130309 -0.9732264,0.129309 -1.9216763,0.442679 -2.78036797,0.91864 0.5895971,-1.800411 1.03339607,-3.648546 1.32562457,-5.520365 0.1191151,-0.762971 0.2106223,-1.559901 -0.02832,-2.294217 -0.1194714,-0.367158 -0.3234975,-0.711446 -0.61408349,-0.965686 -0.29058598,-0.254241 -0.67102524,-0.413204 -1.05705135,-0.405317 -0.4591668,0.0094 -0.89181797,0.252012 -1.20686536,0.586179 -0.3150474,0.334167 -0.5248065,0.753763 -0.6914403,1.181729 -0.4603773,1.182389 -0.6207643,2.480218 -0.4620831,3.739111 -0.1126324,-0.25794 -0.3048751,-0.480457 -0.5437249,-0.629352 -0.2388498,-0.148895 -0.5232813,-0.223528 -0.8044648,-0.211087 -0.4097446,0.01813 -0.8071813,0.226348 -1.0553436,0.552898 -0.2671843,-0.250275 -0.6179676,-0.409721 -0.9822143,-0.446457 -0.4557543,-0.04597 -0.9163485,0.09773 -1.3081913,0.334977 -0.3918428,0.237242 -0.721883,0.563779 -1.025202,0.907032 -1.6247498,1.838657 -2.5773981,4.336649 -2.2698341,6.770961 0.133023,1.052851 0.4957695,2.076074 1.0556048,2.977614 -0.1081522,0.32195 -0.1013469,0.681223 0.01892,0.998846 0.085891,0.226837 0.2283564,0.432007 0.4108897,0.591738 -0.9330812,2.809754 -1.2495795,5.822474 -0.9207755,8.764794 0.052711,0.471691 0.1217595,0.9415562 0.2069791,1.40847 z"
         inkscape:original-d="m -9.6413686,-9.431108 c 0.1410291,0.358177 -0.2778026,-0.156432 0.7624512,1.260121 1.7123643,2.331788 4.4169354,5.9843719 5.7629443,7.7684236 C -0.95227072,2.46529 -0.08968659,1.5358073 1.0921501,1.8021257 2.273986,2.0684458 -0.03233374,-2.1836624 -0.19330849,-3.6460645 -0.35428306,-5.108465 -3.3008557,-7.303487 -5.2732051,-9.442122 c -0.651864,-0.706821 -0.5533705,-0.896712 -0.6732569,-1.256086 -0.242855,-0.727981 0.00621,-0.728923 -0.2305239,-1.452835 -0.3535968,-1.081277 0.7963229,-6.587925 0.7963229,-6.587925 0,0 0.576316,-0.05537 0.8644039,-0.08299 0.2880885,-0.02761 0.519158,-0.725929 0.519158,-0.725929 0,0 2.0641334,-1.221536 3.22915216,-1.843078 0.55477417,-0.295974 1.32806436,-1.263716 1.78092644,-1.701293 0.4981427,-0.48133 0.7273984,-0.518587 1.0351286,-0.850056 0.5874868,-0.632807 0.9115324,-0.528018 1.8122947,-1.033531 0.9007623,-0.505513 1.4031341,-1.53653 2.054689,-2.303779 0.6515557,-0.767247 -1.8829628,-0.941379 -2.8245138,-1.411996 -0.9415511,-0.470617 -2.78036797,0.91864 -2.78036797,0.91864 0,0 0.91117057,-3.958246 1.32562457,-5.520365 0.4144532,-1.562119 -1.16029865,-2.165574 -1.69945534,-3.66522 -0.53915758,-1.499647 -1.26549046,1.178557 -1.89830566,1.767908 -0.6328145,0.589352 -0.4620831,3.739111 -0.4620831,3.739111 0,0 -0.8987468,-0.560341 -1.3481897,-0.840439 -0.4494431,-0.280098 -1.0553436,0.552898 -1.0553436,0.552898 0,0 0.2591448,-1.261328 -0.9822143,-0.446457 -0.9401875,0.617172 -2.045484,1.284383 -2.3333933,1.242009 -0.668045,-0.09832 -1.2500939,5.508147 -2.2698336,6.770961 -1.019739,1.262816 1.0556043,2.977614 1.0556043,2.977614 0,0 0.01266,0.665849 0.01892,0.998846 0.00626,0.332995 0.4108897,0.591738 0.4108897,0.591738 0,0 -0.9490571,7.158817 -0.9207755,8.764794 0.026191,1.487251 -0.1661985,0.460697 0.2069791,1.40847 z"
         inkscape:path-effect="#path-effect916"
         inkscape:connector-curvature="0" />
      <path
         d="m -5.9904309,-22.438386 c 0.097372,-0.511998 0.291348,-1.005453 0.5686942,-1.446703 0.5544653,-0.882139 1.4500057,-1.544077 2.4564831,-1.81353 0.4419719,-0.118324 0.9035172,-0.163192 1.3600036,-0.132208 -0.6757954,0.254068 -1.3212888,0.588629 -1.918481,0.994352 -0.4312919,0.293013 -0.8372538,0.622893 -1.2161898,0.981051 -0.4584581,0.433319 -0.8775734,0.908248 -1.2505101,1.417038 z m 0.7386969,-4.834902 c 0.3366888,-0.483689 0.6223352,-1.002885 0.8506681,-1.546189 0.1679663,-0.399665 0.3064717,-0.820872 0.3103412,-1.254381 0.00293,-0.328803 -0.073257,-0.658041 -0.2203387,-0.952127 0.1915229,-0.120405 0.4193649,-0.182179 0.6454777,-0.175004 0.323679,0.01027 0.6353294,0.161698 0.8649596,0.390048 0.2296301,0.228349 0.3801535,0.52921 0.4549817,0.844288 0.087935,0.370269 0.074648,0.760199 -0.00531,1.132273 -0.079953,0.372074 -0.2250441,0.72763 -0.398027,1.066612 -0.2043411,0.400432 -0.4598966,0.792331 -0.836212,1.038273 -0.1881577,0.122971 -0.4046118,0.206164 -0.6287152,0.223567 -0.2241034,0.0174 -0.4556412,-0.03338 -0.643072,-0.157452 -0.2077507,-0.137528 -0.3543697,-0.364056 -0.3947582,-0.609908 z m -1.861029,7.079296 c -1.1552492,-0.751228 -2.0281502,-1.926172 -2.4138622,-3.249112 -0.3680362,-1.262314 -0.2947303,-2.634919 0.1184126,-3.883198 0.4131428,-1.248279 1.155644,-2.37463 2.0743803,-3.315274 0.2796905,-0.28636 0.5843583,-0.562046 0.9543454,-0.714815 0.1849935,-0.07639 0.3848243,-0.120381 0.5848842,-0.114616 0.2000599,0.0058 0.4002694,0.06267 0.566101,0.17473 0.1406108,0.09502 0.2540828,0.227828 0.3342702,0.377392 0.080187,0.149564 0.127701,0.315553 0.1481576,0.48402 0.040913,0.336932 -0.025064,0.67813 -0.11967,1.004086 -0.2297263,0.791502 -0.6334011,1.534159 -1.1867881,2.144906 -0.098114,0.108284 -0.2022667,0.213583 -0.3272567,0.289275 -0.1249901,0.07569 -0.2738994,0.120051 -0.4182338,0.09726 -0.091987,-0.01452 -0.1788899,-0.0559 -0.2516133,-0.114068 -0.072723,-0.05817 -0.131536,-0.132766 -0.1759779,-0.214604 -0.088884,-0.163675 -0.1197998,-0.35263 -0.1307,-0.538563 -0.028509,-0.486309 0.071025,-0.973446 0.2321457,-1.433174 0.1611209,-0.459727 0.3829482,-0.895447 0.6068673,-1.328078 0.031273,-0.06042 0.063175,-0.122692 0.069812,-0.190402 0.00332,-0.03386 2.42e-5,-0.0687 -0.012547,-0.100307 -0.012571,-0.03161 -0.034793,-0.05981 -0.064225,-0.07687 -0.026951,-0.01562 -0.059049,-0.02141 -0.090077,-0.01865 -0.031028,0.0028 -0.061002,0.01376 -0.087826,0.0296 -0.053648,0.03167 -0.093934,0.08133 -0.1318789,0.13074 -0.2062131,0.26852 -0.3790997,0.561078 -0.5398138,0.859068 -0.1894999,0.351363 -0.3637388,0.713749 -0.472071,1.097976 -0.1083321,0.384227 -0.1488665,0.793106 -0.069224,1.184288 0.079643,0.391182 0.2866104,0.763433 0.6071899,1.00133 0.1602897,0.118949 0.3471291,0.203072 0.5436246,0.238159 0.1964955,0.03509 0.4024356,0.02049 0.5900075,-0.04777 0.1849862,-0.06731 0.3507319,-0.186634 0.4732579,-0.340706 0.078152,0.224015 0.2152794,0.427163 0.3938155,0.583417 0.1785361,0.156255 0.3980637,0.265252 0.6304601,0.313028 0.2905345,0.05973 0.596439,0.0235 0.8749854,-0.07843 0.2785464,-0.10193 0.530905,-0.26754 0.7537377,-0.463303 0.7588898,-0.666701 1.1618599,-1.660834 1.3313111,-2.656671 0.1694512,-0.995837 0.1305151,-2.013364 0.1502544,-3.023322 0.019546,-1.000057 0.1016828,-2.01879 0.4822624,-2.943806 0.0960001,-0.233332 0.21311558,-0.462896 0.3886535,-0.644132 0.087769,-0.09062 0.18974455,-0.16826 0.30356864,-0.222657 0.1138241,-0.0544 0.23971301,-0.08514 0.3658415,-0.08257 0.19313325,0.0039 0.3806122,0.08684 0.52566523,0.214415 0.14505302,0.127576 0.24921805,0.297643 0.31430895,0.47952 0.13018182,0.363753 0.10696332,0.762306 0.0753044,1.147354 -0.23393974,2.84526 -0.84014755,5.659694 -1.79830375,8.348964 1.07919675,-1.284497 2.67722653,-2.11991 4.34790493,-2.272984 0.2126363,-0.01948 0.4275054,-0.02834 0.6392597,-8.86e-4 0.2117542,0.02746 0.421272,0.09261 0.5985596,0.211621 0.1411757,0.09477 0.2605612,0.223889 0.3354346,0.37655 0.074873,0.152661 0.1038467,0.329028 0.072385,0.496125 -0.037615,0.199778 -0.1584124,0.376545 -0.3078451,0.514371 -0.1494326,0.137826 -0.3270792,0.240865 -0.5051926,0.338853 -0.894989,0.492375 -1.8434024,0.887492 -2.7110246,1.42663 -0.3923112,0.243781 -0.76671566,0.516262 -1.12037211,0.813355 -0.68897757,0.578784 -1.29583487,1.247675 -1.94583149,1.869917 -0.6499966,0.622242 -1.3559994,1.206057 -2.17903,1.56979 -0.7940237,0.350913 -1.6828633,0.48441 -2.544938,0.382229 0.1136612,0.131765 0.248447,0.245268 0.3976327,0.334847 0.2230633,0.133939 0.4783958,0.21371 0.738035,0.230575 -0.2717246,0.275243 -0.6268219,0.467078 -1.0059774,0.54346 -0.3791555,0.07638 -0.7808318,0.037 -1.1379339,-0.111561 -0.5659559,-0.235452 -1.006762,-0.751829 -1.1504856,-1.347721 z"
         inkscape:original-d="m -5.9904309,-22.438386 c 0,0 0.3785783,-0.996075 0.5686942,-1.446703 0.1901161,-0.450626 1.6377019,-1.20907 2.4564831,-1.81353 0.8187813,-0.604463 1.3600036,-0.132208 1.3600036,-0.132208 0,0 -1.2789408,0.662853 -1.918481,0.994352 -0.6395401,0.331499 -0.8107467,0.653986 -1.2161898,0.981051 -0.4054432,0.327064 -1.2505101,1.417038 -1.2505101,1.417038 z m 0.7386969,-4.834902 c 0,0 0.6409014,-0.978787 0.8506681,-1.546189 0.1091994,-0.295376 0.1990638,-0.762669 0.3103412,-1.254381 0.1112775,-0.491711 -0.2203387,-0.952127 -0.2203387,-0.952127 0.6419748,-0.437106 0.5283337,-0.714106 0.6454777,-0.175004 0.0772,0.45719 1.1262827,0.538119 1.3199413,1.234336 0.2005359,0.720941 -0.5368726,2.037233 -0.4033322,2.198885 0.450253,0.545038 -1.6513422,0.109292 -2.1079992,1.104388 -0.4566571,0.995097 -0.3947582,-0.609908 -0.3947582,-0.609908 z m -1.861029,7.079296 c 0,0 -1.7129433,-2.398341 -2.4138622,-3.249112 -0.7009188,-0.850774 2.0352361,-5.190176 2.1927929,-7.198472 0.157557,-2.008295 1.2908555,0.24108 2.1053306,-0.654701 0.814475,-0.895782 -0.16552,1.516775 0.3627578,1.865498 0.313143,0.20671 -0.4396963,1.472699 -1.1867881,2.144906 -0.2097126,0.188692 -0.3613569,0.376076 -0.7454905,0.386537 -0.5560211,0.01514 -0.3584032,-1.094854 -0.5582912,-0.867235 -0.8299407,0.94508 0.6447831,-1.828308 0.839013,-2.761252 0.1942295,-0.932944 -0.00352,-0.188349 -0.00696,-0.367577 -0.00344,-0.179229 -0.2495934,0.0454 -0.3097818,0.141687 -0.3875462,0.619961 -0.5097222,0.0132 -0.5398138,0.859068 -0.029809,0.837913 0.5806105,3.097848 1.1995271,3.473986 0.379737,0.230778 0.4732579,-0.340706 0.4732579,-0.340706 0,0 0.7401577,0.526794 1.0242756,0.896445 0.2841179,0.369652 0.9670394,-0.186867 1.6287231,-0.541731 0.6616841,-0.354865 1.1065792,-3.961046 1.4815655,-5.679993 0.3749858,-1.718947 0.3215547,-1.962586 0.4822624,-2.943806 0.16070762,-0.981221 0.70542212,-0.632951 1.05806364,-0.949355 0.35264134,-0.316402 0.61023229,1.227478 0.91527856,1.841289 0.3050468,0.613811 -1.79830375,8.348964 -1.79830375,8.348964 0,0 3.41502295,-1.603211 4.34790495,-2.272984 0.9328826,-0.669773 0.3088863,0.228283 1.2378193,0.210735 0.9289328,-0.01755 0.2719261,0.581735 0.4078192,0.872675 0.1358937,0.29094 -0.4925904,0.55364 -0.8130377,0.853224 -0.1800163,0.168296 -1.6629164,0.799683 -2.7110246,1.42663 -0.81763038,0.48908 -0.64628263,0.568575 -1.12037213,0.813355 -1.08181703,0.558561 -3.27553667,2.657296 -4.12486147,3.439707 -0.8493249,0.782409 -2.544938,0.382229 -2.544938,0.382229 0,0 0.2651346,0.223183 0.3976327,0.334847 0.1324972,0.111663 0.738035,0.230575 0.738035,0.230575 0,0 -1.4292277,0.287884 -2.1439113,0.431899 -0.7146837,0.144015 -1.1504856,-1.347721 -1.1504856,-1.347721 z"
         inkscape:path-effect="#path-effect856"
         id="path885"
         inkscape:connector-curvature="0" />
      <circle
         r="0.75"
         cy="0"
         cx="0"
         id="path859" />
    </g>
    <g
       id="minutes">
      <path
         id="path869"
         d="m 0.70826879,-24.213761 c 0.36983941,-0.287914 0.66441471,-0.671664 0.84695821,-1.103351 0.1923703,-0.454926 0.2595594,-0.962055 0.1922922,-1.45138 0.4727657,-0.378937 0.8575858,-0.866912 1.1158696,-1.414991 0.2199452,-0.466724 0.3483301,-0.976384 0.3757407,-1.491608 0.7823545,-0.708312 1.2919805,-1.710634 1.4033606,-2.7601 0.11138,-1.049467 -0.17651,-2.136429 -0.7927645,-2.993176 -0.1255526,-0.174549 -0.2650059,-0.340665 -0.4301515,-0.478353 -0.1651457,-0.137687 -0.3572812,-0.246524 -0.5663676,-0.296662 -0.2239632,-0.05371 -0.4641165,-0.03775 -0.6790065,0.04511 -0.21489,0.08286 -0.4035836,0.23227 -0.5335102,0.422435 -0.193932,-0.511093 -0.5807928,-0.946312 -1.06562402,-1.198829 -0.37517759,-0.195405 -0.80618219,-0.282109 -1.22773571,-0.24698 -0.42155347,0.03513 -0.83226227,0.191977 -1.16992197,0.446785 0.073042,-1.198428 0.063386,-2.401889 -0.028877,-3.59899 -0.053583,-0.69524 -0.1426261,-1.412054 -0.497253,-2.012445 -0.1773135,-0.300195 -0.4211144,-0.565276 -0.7225413,-0.740488 -0.3014268,-0.175212 -0.6622885,-0.256238 -1.0057657,-0.196398 -0.2808088,0.04892 -0.5418564,0.189805 -0.7518049,0.382597 -0.2099485,0.192791 -0.3702501,0.435948 -0.4848798,0.696921 -0.2292594,0.521946 -0.2766967,1.103277 -0.307671,1.672512 -0.072411,1.330735 -0.071572,2.665452 0.00251,3.996095 -0.9652088,0.754964 -1.6371535,1.875499 -1.8484861,3.082535 -0.2651725,1.514546 0.1919611,3.100446 1.0492681,4.376843 0.5460891,0.813042 1.2516067,1.51856 2.0646484,2.064649 -0.067466,0.564064 0.036631,1.147503 0.2950057,1.653431 0.2590215,0.507195 0.6720703,0.934436 1.1702291,1.210437 1.3702455,7.423766 1.6447045,15.0488466 0.8117392,22.5519153 -0.061291,0.5520854 -0.1285076,1.11072834 -0.052747,1.6610148 0.084838,0.61621873 0.3601072,1.2162728 0.8219295,1.6329779 0.2309111,0.2083526 0.50604906,0.3689165 0.80382231,0.4587043 C -0.20569214,2.24724 0.11456065,2.2653466 0.418794,2.2007493 0.79209857,2.1214862 1.1340955,1.9192475 1.4047446,1.6501973 1.6753936,1.381147 1.8768058,1.0473074 2.0167723,0.69227458 2.2967055,-0.01779106 2.3328222,-0.79716763 2.3564833,-1.5600542 2.4761801,-5.4193477 2.3636708,-9.2858297 2.0197662,-13.131633"
         inkscape:original-d="m 0.70826879,-24.213761 c 0,0 0.53619771,-0.79259 0.84695821,-1.103351 0.3107605,-0.310758 0.1922922,-1.45138 0.1922922,-1.45138 0,0 0.6941066,-0.993229 1.1158696,-1.414991 0.421763,-0.421763 0.3757407,-1.491608 0.3757407,-1.491608 0,0 0.1222316,-4.754299 0.6105961,-5.753276 0.4883645,-0.998976 -0.6856655,0.223962 -0.9965191,-0.775015 -0.3108553,-0.998976 -1.2125167,0.467547 -1.2125167,0.467547 0,0 -0.71036948,-0.799267 -1.06562402,-1.198829 -0.35525633,-0.399562 -2.39765768,0.199805 -2.39765768,0.199805 0,0 0.037771,-2.378008 -0.028877,-3.59899 -0.06665,-1.220981 -1.6260981,-1.994756 -2.22556,-2.949331 -0.5994618,-0.954576 -0.9226951,1.841762 -1.5443557,2.75203 -0.6216623,0.910269 0.00251,3.996095 0.00251,3.996095 0,0 -1.1824227,2.083464 -1.8484861,3.082535 -0.6660633,0.999072 0.2787393,3.043263 1.0492681,4.376843 0.4869204,0.842728 2.0646484,2.064649 2.0646484,2.064649 0,0 -0.077924,0.924536 0.2950057,1.653431 0.2678001,0.523417 1.1702291,1.210437 1.1702291,1.210437 0,0 0.795818,15.029759 0.8117392,22.5519153 0.00125,0.5539496 -0.2790363,1.1553924 -0.052747,1.6610148 C -1.6765657,1.077176 -0.68114187,2.8243676 0.418794,2.2007493 1.4125647,1.6373208 2.0414656,-0.5595249 2.3564833,-1.5600542 3.4194016,-4.9360049 2.1328194,-9.278701 2.0197662,-13.131633"
         inkscape:path-effect="#path-effect906"
         inkscape:connector-curvature="0" />
      <path
         d="m -4.8669041,-36.296267 c -0.1248437,-1.553078 -0.1561101,-3.113673 -0.093573,-4.670505 0.012706,-0.3163 0.030482,-0.638452 0.1423341,-0.934588 0.055926,-0.148068 0.1355232,-0.288278 0.2427194,-0.404729 0.1071963,-0.116451 0.2427499,-0.208538 0.3941634,-0.254644 0.2199452,-0.06697 0.4644313,-0.03262 0.6688205,0.07267 0.2043892,0.105293 0.3699724,0.277477 0.4881396,0.474703 0.2363345,0.394451 0.2843544,0.870112 0.319783,1.328578 0.1376402,1.781138 0.1689052,3.570491 0.093573,5.35535 z m 6.8866703,23.164634 C 1.7815252,-16.32359 1.4243504,-19.506668 0.94923173,-22.672044 0.87202317,-23.18643 0.79170142,-23.700348 0.70827236,-24.213761 M -2.2210968,-35.206017 c 0.1068521,-0.46184 0.4246569,-0.870447 0.8459847,-1.087695 0.3198435,-0.16492 0.6948461,-0.220395 1.04877318,-0.155325 0.35392709,0.06507 0.68462675,0.250257 0.9251907,0.51789 0.32835093,0.365298 0.47780712,0.863067 0.51071342,1.353143 0.032906,0.490076 -0.040811,0.980226 -0.1078618,1.466807 -0.0579576,0.420596 -0.11515479,0.854301 -0.32685995,1.222323 -0.10585259,0.184011 -0.25060647,0.348335 -0.43156538,0.459325 -0.18095891,0.11099 -0.3994989,0.16594 -0.60932134,0.133699 -0.20913859,-0.03214 -0.40334428,-0.152137 -0.52564867,-0.324802 0.51602271,-0.3079 0.90165378,-0.827019 1.04740876,-1.409975 0.0369679,-0.147855 0.0589264,-0.300431 0.0512914,-0.452646 -0.007635,-0.152215 -0.0458664,-0.303503 -0.1174978,-0.438027 -0.07163145,-0.134524 -0.1762038,-0.250408 -0.29863402,-0.341175 -0.12243021,-0.09077 -0.26159124,-0.15587 -0.40057402,-0.218412 z m 3.8575527,2.186064 c 0.057268,-0.469904 0.094961,-0.942805 0.092293,-1.416178 -0.00117,-0.207059 -0.010057,-0.414074 -0.026644,-0.620471 0.065522,-0.114419 0.1695484,-0.206335 0.2911655,-0.257268 0.150951,-0.06322 0.3250165,-0.06219 0.4804234,-0.0109 0.1554068,0.0513 0.2925649,0.150548 0.4016355,0.272557 0.2181412,0.244019 0.3218971,0.567346 0.4070608,0.883381 0.1704202,0.632414 0.2902782,1.283234 0.2827216,1.938164 -0.00756,0.65493 -0.1471515,1.316455 -0.4692284,1.886768 -0.048935,0.08665 -0.1027693,0.172048 -0.1751869,0.240302 -0.072418,0.06826 -0.1657883,0.118566 -0.2652208,0.12259 -0.068184,0.0028 -0.1359767,-0.01625 -0.1972811,-0.04623 -0.061304,-0.02998 -0.1167292,-0.07065 -0.1700007,-0.113299 -0.4560248,-0.365086 -0.7754931,-0.896889 -0.8836411,-1.470954 0.096932,-0.465975 0.1743238,-0.936015 0.2319032,-1.40847 z m -7.0627943,-0.964908 c 0.1448237,0.05526 0.2826693,0.128775 0.4092383,0.21826 0.2713472,0.191844 0.4855471,0.4523 0.6923312,0.712442 0.2067842,0.260142 0.4122774,0.525965 0.6717953,0.733532 0.4545903,0.363589 1.0649769,0.523276 1.6403107,0.434731 0.5753338,-0.08854 1.10763281,-0.422471 1.44261517,-0.898534 0.0728473,-0.103528 0.13722115,-0.214438 0.17541562,-0.335128 0.0381945,-0.120689 0.049121,-0.252158 0.0155613,-0.374217 -0.0337342,-0.122694 -0.1119603,-0.230705 -0.21083553,-0.310802 -0.0988752,-0.0801 -0.21715171,-0.131835 -0.33481435,-0.180284 l -3.24662191,-1.336844 c -0.125569,-0.0517 -0.2520826,-0.102467 -0.3838769,-0.135197 -0.1317943,-0.03273 -0.2684784,-0.04736 -0.4039308,-0.03769 -0.2709047,0.01935 -0.5282156,0.13928 -0.7400131,0.309297 -0.3241878,0.260236 -0.5521237,0.624612 -0.7093441,1.009453 -0.3710187,0.908171 -0.3672224,1.93845 -0.1364151,2.891948 0.2964309,1.224598 0.9626564,2.357134 1.8890068,3.211176 0.9263504,0.854042 2.1091827,1.426232 3.3537866,1.622379 -0.3005034,0.22203 -0.6692869,0.350283 -1.0427131,0.362627 -0.513622,0.01698 -1.0307383,-0.190671 -1.3899794,-0.558151 0.119145,0.859558 0.6755245,1.646886 1.4459745,2.046188 0.4404725,0.228284 0.9486592,0.333188 1.44061476,0.269083 0.49195556,-0.0641 0.96430002,-0.302047 1.28763823,-0.678321 0.34392318,-0.400229 0.50689885,-0.950271 0.43652098,-1.473256 -0.25551285,0.08256 -0.52278468,0.128646 -0.79119393,0.136412 -0.25677435,0.0074 -0.51453958,-0.02019 -0.76391126,-0.08185 0.88002058,-0.136444 1.70009442,-0.626488 2.23716662,-1.336845 0.3762828,-0.497689 0.6147084,-1.09852 0.6820651,-1.718799 -0.3274436,-0.150984 -0.625564,-0.365257 -0.873042,-0.627498 -0.2456158,-0.260267 -0.44118673,-0.567593 -0.57293255,-0.900323 -0.30396523,0.258363 -0.72611516,0.371623 -1.11858421,0.300107 -0.22227161,-0.0405 -0.43395856,-0.137784 -0.60945233,-0.280076 C -1.1094516,-31.133333 -1.2483878,-31.32034 -1.333959,-31.52944 l -0.2728249,0.08185 c 0.4678781,0.421332 0.79765797,0.993597 0.92760548,1.609669 0.16723912,0.792868 -0.004479,1.651459 -0.46380188,2.319015 0.20211407,-0.772017 0.14366209,-1.609825 -0.163696,-2.346297 -0.2575496,-0.617124 -0.6872113,-1.161363 -1.2277131,-1.555104 -0.5213708,-0.140423 -1.0261521,-0.342336 -1.5005399,-0.600216 -0.3064874,-0.166609 -0.6027767,-0.358489 -0.8488017,-0.605804 -0.2460249,-0.247315 -0.4405786,-0.553992 -0.5153248,-0.894735 -0.03332,-0.151896 -0.042565,-0.309048 -0.027283,-0.463803 z"
         inkscape:original-d="m -4.8669041,-36.296267 c 0,0 -0.093524,-3.139722 -0.093573,-4.670505 -2.68e-5,-0.879334 0.2142726,-1.935244 0.7792169,-1.593961 0.4185347,0.252836 1.1567434,1.835934 1.4767431,1.875956 0.7519395,0.09405 0.093573,5.35535 0.093573,5.35535 z m 6.8866703,23.164634 c -0.093857,-3.198717 -0.6449348,-6.368743 -1.07053447,-9.540411 -0.0691766,-0.515523 -0.24095937,-1.541717 -0.24095937,-1.541717 M -2.2210968,-35.206017 c 0,0 0.564037,-0.725177 0.8459847,-1.087695 0.2819478,-0.362517 1.31602306,0.241663 1.97396388,0.362565 0.65794262,0.120902 0.28204442,1.759064 0.40285162,2.81995 0.034399,0.302086 -1.15172216,1.391357 -1.36774667,1.815347 -0.54262563,1.065001 -0.52564867,-0.324802 -0.52564867,-0.324802 0,0 0.69832082,-0.940031 1.04740876,-1.409975 0.34908972,-0.469945 -0.26696076,-1.225956 -0.76541444,-1.45026 z m 3.8575527,2.186064 c 0.3519833,-1.025292 0.027276,-0.418845 0.092293,-1.416178 0.059558,-0.913601 -0.026644,-0.620471 -0.026644,-0.620471 0,0 0.1032164,-0.21703 0.2911655,-0.257268 0.1879491,-0.04024 0.8594596,0.554148 1.2891197,1.145042 0.42966,0.590894 -0.092462,2.790903 -0.1865068,3.824932 -0.094047,1.034029 -0.1717953,0.268846 -0.4404077,0.362892 -0.147451,0.05163 -0.1031288,0.181729 -0.3672818,-0.159525 -0.2170588,-0.280413 -0.8836411,-1.470954 -0.8836411,-1.470954 0,0 0.1620854,-1.205303 0.2319032,-1.40847 z m -7.0627943,-0.964908 c -0.00914,-0.154554 0.2728732,0.145459 0.4092383,0.21826 0.136365,0.0728 0.9094653,0.963936 1.3641265,1.445974 0.4546611,0.482039 2.0553304,-0.309249 3.08292587,-0.463803 1.02759366,-0.154553 0.12736567,-0.472944 0.19097692,-0.709345 0.063613,-0.236402 -0.31937871,-0.397916 -0.54564988,-0.491086 l -3.24662191,-1.336844 c -1.178298,-0.485182 -1.1653599,-0.119111 -1.5278208,0.136413 -0.3361248,0.236959 -0.3364362,-0.336532 -0.7093441,1.009453 -0.3729097,1.345986 -0.6274532,1.891541 -0.1364151,2.891948 0.491038,1.000407 5.2427934,4.833555 5.2427934,4.833555 0,0 -0.5923432,0.364834 -1.0427131,0.362627 -0.4769726,-0.0023 -1.3899794,-0.558151 -1.3899794,-0.558151 0,0 1.0822557,1.50049 1.4459745,2.046188 0.3637189,0.545698 1.70065755,-0.336531 2.72825299,-0.409238 1.02759371,-0.07271 0.43652098,-1.473256 0.43652098,-1.473256 0,0 -0.5274149,0.09089 -0.79119393,0.136412 -0.26377903,0.04552 -0.50922646,-0.05461 -0.76391126,-0.08185 0,0 1.49149215,-0.891278 2.23716662,-1.336845 0.7456763,-0.445567 0.6820651,-1.718799 0.6820651,-1.718799 0,0 -0.5819803,-0.41838 -0.873042,-0.627498 -0.2910617,-0.209119 -0.57293255,-0.900323 -0.57293255,-0.900323 0,0 -0.74567628,0.200024 -1.11858421,0.300107 -0.37290794,0.100084 -1.00945354,-0.818475 -1.00945354,-0.818475 l -0.2728249,0.08185 c 0,0 0.61845017,1.08216 0.92760548,1.609669 0.30915531,0.52751 -0.46380188,2.319015 -0.46380188,2.319015 0,0 -0.1181784,-1.636999 -0.163696,-2.346297 -0.04552,-0.709299 -1.2277131,-1.555104 -1.2277131,-1.555104 0,0 -1.0003128,-0.445662 -1.5005399,-0.600216 -0.5002271,-0.154554 -0.9093705,-1.000407 -1.3641265,-1.500539 -0.4547559,-0.500133 -0.01814,-0.309249 -0.027283,-0.463803 z"
         inkscape:path-effect="#path-effect847"
         id="path845"
         inkscape:connector-curvature="0" />
      <circle
         r="0.5"
         cy="0"
         cx="0"
         id="path861" />
    </g>
    <g
       id="secondes">
      <path
         inkscape:connector-curvature="0"
         id="path941"
         d="m 0,-43.738281 a 0.82730162,0.82730162 0 0 0 -0.828125,0.826172 V -1.628906 A 1.8273016,1.8273016 0 0 0 -1.828125,0 1.8273016,1.8273016 0 0 0 0,1.828125 1.8273016,1.8273016 0 0 0 1.826172,0 a 1.8273016,1.8273016 0 0 0 -1,-1.626953 V -42.912109 A 0.82730162,0.82730162 0 0 0 0,-43.738281 Z" />
    </g>
  </g>
</svg>
