<svg xmlns="http://www.w3.org/2000/svg" version="1.1" viewBox="0 0 32 32">
	<path d="m9.7832 0.74805a6 6 60 0 0 -3.2832 0.79685 6 6 60 0 0 -2.1953 8.1973l10.391-6a6 6 60 0 0 -4.9128 -2.9942zm12.434 0a6 6 30 0 0 -4.9121 2.9941l10.391 6a6 6 30 0 0 -2.196 -8.1973 6 6 30 0 0 -3.283 -0.79685zm-6.217 5.252a12 12 0 0 0 -12 12 12 12 0 0 0 2.2305 6.941l-1.6446 1.645a2 2 0 0 0 0 2.8281 2 2 0 0 0 2.8281 0l1.6407-1.641a12 12 0 0 0 6.9453 2.227 12 12 0 0 0 6.941 -2.23l1.6445 1.6445a2 2 0 0 0 2.8281 0 2 2 0 0 0 0 -2.8281l-1.641-1.641a12 12 0 0 0 2.227 -6.945 12 12 0 0 0 -12 -12zm0 4a8 8 0 0 1 8 8 8 8 0 0 1 -8 8 8 8 0 0 1 -8 -8 8 8 0 0 1 8 -8zm-2 2v6.8301l3.5859 3.5859 2.8281-2.8301-2.414-2.414v-5.172h-4z"/>
</svg>
