<svg xmlns="http://www.w3.org/2000/svg" version="1.1" viewBox="0 0 32 32">
	<path d="m 12,2 0,4 2,0 0,2.1816406 A 12,11.999989 0 0 0 4,20 12,11.999989 0 0 0 16,32 12,11.999989 0 0 0 28,20 12,11.999989 0 0 0 25.775391,13.054688 L 28.728516,10.101563 25.898438,7.2734375 22.941406,10.230469 A 12,11.999989 0 0 0 18,8.1699219 L 18,6 20,6 20,2 12,2 Z m 4,10 a 8,7.9999828 0 0 1 8,8 8,7.9999828 0 0 1 -8,8 8,7.9999828 0 0 1 -8,-8 8,7.9999828 0 0 1 8,-8 z m -0.02148,5.980469 a 2.0002,2.0002 0 0 0 -1.392578,3.433593 l 4,4 a 2.0002,2.0002 0 1 0 2.828124,-2.828124 l -4,-4 A 2.0002,2.0002 0 0 0 15.97852,17.980469 Z"/>
</svg>
