<svg xmlns="http://www.w3.org/2000/svg" version="1.1" viewBox="0 0 32 32">
	<path d="M 6,2 A 2,2 0 0 0 4,4 C 4,8.9980685 6.291688,13.517973 9.822266,16 6.291687,18.482027 4,23.001931 4,28 a 2,2 0 0 0 2,2 l 10,0 10,0 a 2,2 0 0 0 2,-2 C 28,23.001931 25.708313,18.482027 22.177734,16 25.708312,13.517973 28,8.9980685 28,4 A 2,2 0 0 0 26,2 L 16,2 6,2 Z M 8.330078,6 16,6 23.669922,6 C 23.160928,9.0197423 21.620453,11.468255 19.619141,12.851562 18.621753,13.540961 18,14.709354 18,16 c 0,1.290647 0.621753,2.459041 1.619141,3.148438 C 21.620453,20.531745 23.160928,22.980258 23.669922,26 22.792785,23.187153 18,23 17.332031,20.054688 c -0.53892,-2.376289 -0.943442,-5.731579 0.871094,-7.257813 0.940139,-0.790766 2.156889,-1.535653 2.466797,-2.746094 l -4.669922,0 -4.669922,0 c 0.309908,1.210441 1.526658,1.955328 2.466797,2.746094 1.814536,1.526234 1.410014,4.881523 0.871094,7.257813 C 14,23 9.207215,23.187153 8.330078,26 8.839072,22.980258 10.379547,20.531745 12.380859,19.148438 13.378247,18.459041 14,17.290647 14,16 14,14.709354 13.378247,13.540962 12.380859,12.851562 10.379547,11.468255 8.839072,9.0197423 8.330078,6 Z"/>
<!--	<path d="m5 2a1.0001 1.0001 0 0 0 -1 1c0 5.9622 3.2439 10.999 7.871 13-4.6271 2.001-7.871 7.038-7.871 13a1.0001 1.0001 0 0 0 1 1h22a1.0001 1.0001 0 0 0 1 -1c0-5.962-3.244-10.999-7.871-13 4.627-2.001 7.871-7.0378 7.871-13a1.0001 1.0001 0 0 0 -1 -1h-22zm1.1406 2h19.719c-0.36782 5.0943-3.3008 9.2512-7.1777 10.549a1.0001 1.0001 0 0 0 -0.682 0.949v1.0039a1.0001 1.0001 0 0 0 0.68164 0.94922c3.877 1.298 6.81 5.455 7.177 10.549h-1.859c-0.29846-3.3962-2.6784-6.1681-5.8242-7.0332-0.33079-0.09129-0.55314-0.34611-0.55273-0.63281v-6.668c-0.000409-0.2867 0.22195-0.54152 0.55273-0.63281 3.146-0.865 5.526-3.6368 5.824-7.033h-16c0.29846 3.3962 2.6784 6.1681 5.8242 7.0332 0.33079 0.09129 0.55314 0.34611 0.55273 0.63281v6.668c0.000408 0.2867-0.22195 0.54152-0.55273 0.63281-3.146 0.865-5.5255 3.637-5.824 7.033h-1.8594c0.3678-5.094 3.3008-9.251 7.1774-10.549a1.0001 1.0001 0 0 0 0.682 -0.949v-1.0039a1.0001 1.0001 0 0 0 -0.682 -0.949c-3.8766-1.298-6.8096-5.4547-7.1774-10.549z"/>-->
</svg>
