<svg xmlns="http://www.w3.org/2000/svg" version="1.1" viewBox="0 0 32 32">
<!--	<path d="M 15.927734,4.0013673 A 2.0002,2.0002 0 0 0 14,5.9994142 l 0,2.2011719 C 9.4355506,9.1271506 6,13.16152 6,17.999414 c 0,5.522848 4.477153,10 10,10 5.454871,0 9.881894,-4.369893 9.990234,-9.798828 0,0 0,-0.002 0,-0.002 a 2,2 0 0 0 0.0098,-0.199172 2,2 0 0 0 -2,-2 2,2 0 0 0 -2,2 c 0,3.313708 -2.686292,6 -6,6 -3.313708,0 -6,-2.686292 -6,-6 0,-2.611643 1.670725,-4.828071 4,-5.652344 l 0,1.652344 a 2.0002,2.0002 0 0 0 2.894531,1.789062 l 8,-3.999999 a 2.0002,2.0002 0 0 0 0,-3.5781253 l -8,-4 A 2.0002,2.0002 0 0 0 15.927734,4.0013673 Z"/>-->
	<path d="M 17.927734,4.0019531 C 16.852294,4.0411304 16,4.9238464 16,6 l 0,1 C 9.9248678,7 5,11.924868 5,18 c 0,6.063288 4.9367129,11 11,11 5.988995,0 10.87215,-4.828145 10.996094,-10.880859 l 0,-0.01563 C 27.00302,16.400779 25.644722,15 24,15 c -1.64501,0 -3,1.35499 -3,3 0,2.773268 -2.226732,5 -5,5 -2.773268,0 -5,-2.226732 -5,-5 0,-2.761424 2.238576,-5 5,-5 l 0,1 c 0,1.486794 1.603632,2.526719 2.894531,1.789062 l 7,-4 C 26.6101,11.380165 27,10.710244 27,10 27,9.289756 26.6101,8.6198342 25.894531,8.2109375 l -7,-4 C 18.603739,4.0447705 18.262432,3.9897603 17.927734,4.0019531 Z"/>
</svg>
